/* XPM */
static char *_a7e18a2d4b048dfbcdc76ed5c5e8c45WHqSuPZbTMEsjooM[] = {
/* columns rows colors chars-per-pixel */
"64 64 160 2 ",
"   c #151225",
".  c #1C1623",
"X  c #1C1826",
"o  c #161328",
"O  c #231A24",
"+  c #291E26",
"@  c #2D2326",
"#  c #332727",
"$  c #332729",
"%  c #3E312D",
"&  c #442D2B",
"*  c #44322E",
"=  c #523E33",
"-  c #5D4636",
";  c #5B4B3E",
":  c #614736",
">  c #604937",
",  c #604639",
"<  c #654E3C",
"1  c #6D513B",
"2  c #7D553B",
"3  c #7F5E3F",
"4  c #5D6677",
"5  c #5D6578",
"6  c #6D6767",
"7  c #6D6968",
"8  c #7C6E63",
"9  c #776C68",
"0  c #717075",
"q  c #81603F",
"w  c #805F40",
"e  c #885F41",
"r  c #816041",
"t  c #8A6241",
"y  c #8E6A48",
"u  c #996F47",
"i  c #9D7447",
"p  c #9C734A",
"a  c #8C6E53",
"s  c #836C5D",
"d  c #956E54",
"f  c #8F7356",
"g  c #88715F",
"h  c #957455",
"j  c #9B7551",
"k  c #94765E",
"l  c #9B7959",
"z  c #A1764C",
"x  c #A47A4E",
"c  c #A47E52",
"v  c #A97F55",
"b  c #A27F59",
"n  c #937B63",
"m  c #847A71",
"M  c #A68156",
"N  c #AA8257",
"B  c #AC855A",
"V  c #AE895C",
"C  c #B28B5E",
"Z  c #9D846E",
"A  c #9F8869",
"S  c #9B8472",
"D  c #A48765",
"F  c #AD8A62",
"G  c #A68969",
"H  c #B48D63",
"J  c #B69262",
"K  c #B99467",
"L  c #B6946B",
"P  c #BC9A6D",
"I  c #B69977",
"U  c #BD9B74",
"Y  c #C39E67",
"T  c #C09C6D",
"R  c #C09E70",
"E  c #C5A16D",
"W  c #C5A374",
"Q  c #C8A575",
"!  c #C5A57E",
"~  c #C9A77A",
"^  c #CAAA7B",
"/  c #566785",
"(  c #596885",
")  c #566B8B",
"_  c #596B8C",
"`  c #576E95",
"'  c #586D93",
"]  c #587096",
"[  c #57729D",
"{  c #5A749D",
"}  c #5D77A2",
"|  c #5D78A3",
" . c #898C91",
".. c #C2A583",
"X. c #C5A880",
"o. c #CCAE84",
"O. c #D0AF86",
"+. c #CFB285",
"@. c #CEB18A",
"#. c #D0B185",
"$. c #D3B589",
"%. c #D7BA8E",
"&. c #D8B88F",
"*. c #D1B792",
"=. c #D3B991",
"-. c #D8BD92",
";. c #D6BE9F",
":. c #D8BE99",
">. c #DCC39C",
",. c #DFC89F",
"<. c #E0C79E",
"1. c #DDC4A1",
"2. c #DFCAA5",
"3. c #E1C7A2",
"4. c #E1CBA5",
"5. c #E1C6A8",
"6. c #E3CEAB",
"7. c #E6D1AE",
"8. c #E8D3AF",
"9. c #E6D3B2",
"0. c #EAD6B4",
"q. c #EBD9B5",
"w. c #EDDBBA",
"e. c #F1DEBD",
"r. c #EFDEC1",
"t. c #EFDFC6",
"y. c #EFDEC1",
"u. c #F0DFC4",
"i. c #EFE0C3",
"p. c #F1E1C7",
"a. c #F1E1C5",
"s. c #F2E4CA",
"d. c #F4E4CA",
"f. c #F1E2C9",
"g. c #F5E7D3",
"h. c #F6E9D2",
"j. c #F6EBD7",
"k. c #F5E9D4",
"l. c #F8ECD6",
"z. c #FAEBD5",
"x. c #F6EBDA",
"c. c #F7EFDD",
"v. c #F8EBD8",
"b. c #F9ECD9",
"n. c #FBECD9",
"m. c #FAEEDC",
"M. c #F9ECDA",
"N. c #FAF0DE",
"B. c #FBEFE1",
"V. c #FAF2E5",
"C. c #FCF4E9",
"Z. c #FBF4EA",
"A. c #FCF7F1",
"S. c #FBFBF3",
"D. c #FBFAF6",
"F. c #FDFCF8",
"G. c #FDFDFD",
"H. c #FCFFFF",
"J. c #FEFEFD",
"K. c #FEFEFD",
/* pixels */
"| | | | | | | | | | | | | | | | | | | | | | | | | | | | | | | |                                                                 ",
"| | | | | | | | | | | | | | | | | | | | | | | | | | | | | | | |                                                                 ",
"| | | | | | | | | | | | | | | | | | | | | | | | | | | | | | | |                                                                 ",
"| | | | | | | | | | | | | | | | | | | | | | | | | | | | | | | |                                                                 ",
"| | | | | | | | | | | | | | | | | | | | | | | | | | | | | | | |                                                                 ",
"| | | | | | | | | | | | | | | | | | | | | | | | | | | | | | | |                                                                 ",
"| | | | | | | | | | | | | | | | | | | | | | | | | | | | | | | |                                                                 ",
"| | | | | | | | | | | | | | | | | | | | | | | | | | | | | | | |                                                                 ",
"| | | | | | | | | | | | | | | | | | | | | | | | | | | | | } | |                                                                 ",
"| | | | | | | | | | | | | | | | | | | | | | | | | | | | } | | }                                                                 ",
"| | | | | | | | | | | | | | | | | | | | | | | | | | | } { { { {                                                                 ",
"| | | | | | | | | | | | | | | | | | | | | | | | | | ] l x x B N N N N N N                                                       ",
"| | | | | | | | | | | | | | | | | | | | | | | } | ' k W W o.q.q.q.q.w.w.q.F X                                                   ",
"| | | | | | | | | | | | | | | | | | | | | | | | ` g T Q =.w.w.q.0.y.x.x.w.0.D O                                                 ",
"| | | | | | | | | | | | | | | | | | | | | | | | 5 J W =.q.w.w.q.w.N.S.K.s.q.2.-                                                 ",
"| | | | | | | | | | | | | | | | | | | | } | | [ 9 P W 8.q.q.e.w.w.n.J.K.B.w.8.f .                                               ",
"| | | | | | | | | | | | | | | | | | | | | | | ) B W W 7.q.w.e.w.q.w.j.C.a.q.q.=.%                                               ",
"| | | | | | | | | | | | | | | | | | | | | | | ( V W W 9.q.q.e.w.q.q.d.y.q.q.q.=.%                                               ",
"| | | | | | | | | | | | | | | | | | | | } | | ) V W W 8.q.q.q.q.q.q.q.q.q.q.q.=.*           o                                   ",
"| | | | | | | | | | | | | | | | | | | | | | } ) P -.W Q q.q.q.q.q.0.q.q.q.q.q.*.&                                               ",
"| | | | | | | | | | | | | | | | | | | | | | | ) U :.W Q 9.q.q.q.q.0.q.q.q.q.q.=.&                                               ",
"| | | | | | | | | | | | | | | | | | | | | | | ' A =.~ Q W 2.q.q.q.q.w.w.w.q.4.I +                                               ",
"| | | | | | | | | | | | | | | | | | | | | | | | 5 o.1.Q W ~ 1.q.q.w.w.e.w.1.T :                                                 ",
"| | | | | | | | | | | | | | | | | | | | | | | | _ S 2.>.^ ~ Q >.>.>.>.>.>.Q b +                                                 ",
"| | | | | | | | | | | | | | | | | | | | | | | | | ' Z 6.4.,.^ ~ ~ ~ ~ ~ B N O                                                   ",
"| | | | | | | | | | | | | | | | | } | | | | | } | { _ G V 9.4.6.4.4.X.c i .                                                     ",
"| | | | | | | | | | | | | | | | | | | | | | | | ` p x x x x x c M M v M M N v                                                   ",
"| | | | | | | | | | | | | | | | | | | | | | | / H Q W W W ^ ^ q.q.q.q.w.w.q.w.L .                                               ",
"| | | | | | | | | | | | | | | | | | | | | | | h $.q.+.Q W q.q.q.q.q.q.h.m.q.m.q.u         o                                     ",
"| | | | | | | | | | | | | | | | | | | | | | | h &.W W 3.h.l.b.b.b.N.K.K.K.b.0.9.y                                               ",
"| | | | | | | | | | | | | | | | | | | | | | | | f h R W W 6.6.6.6.4.4.t.a.2.t t     o                                           ",
"| | | | | | | | | | | | | | | | } | | | } | | } | ' s h z i p p p z z p 2 1                                                     ",
"                                                      # N C C C K ! ! B ) | | | | | | | | | | | | | | | | | | | | | | | | | | | ",
"                                                      # J W W >.4.q.y.U ) | } | | | | | | | | | | | | | | | | | | | | | | | | | ",
"                                                      # J W Q q.q.w.z...) | | | | | | | | | | | | | | | | | | | | | | | | | | | ",
"                                                      < P W W q.0.w.b.;.0 } } } | | | | | | | | | | | | | | | | | | | | | | | | ",
"                                                    O C W W Q q.q.w.b.a.H ] | | | | | | | | | | | | | | | | | | | | | | | | | | ",
"                                                    $ H E Q q.0.q.q.a.y.U ( | | | | | | | | | | | | | | | | | | | | | | | | | | ",
"                                                    B E Y E q.q.q.0.e.g.w.N } | | | | | | | | | | | | | | | | | | | | | | | | | ",
"                                                * ; K E E %.0.q.q.0.q.c.h.@. .7 | | | | | | | | | | | | | | | | | | | | | | | | ",
"                                              = K W W W <.q.q.0.0.0.0.w.w.q.q.9.8 | | | | } | | | | | | | | | | | | | | | | | | ",
"                                              w W W >.q.0.q.q.q.0.q.0.0.g.D.b.w.j | | | | | | | | | | | | | | | | | | | | | | | ",
"                                              q W W W W 9.z.b.b.z.c.J.K.p.q.q.0.z | | | | | | | | | | | | | | | | | | | | | | | ",
"                                            , P W W W W W W W Q W ^ q.q.0.q.q.q.8.h | | | | | | | | | | | | | | | | | | | | | | ",
"                                            > T W W W W W W Q ~ 0.0.0.q.h.w.q.q.0.l { | | | | | | | | | | | | | | | | | | | | | ",
"                                          % P W W W W 8.0.0.0.0.0.0.q.q.h.m.w.q.q.8.n { | | | | | | | | | | | | | | | | | | | | ",
"                                        @ H W W W W ~ 7.0.9.0.0.0.0.q.q.h.b.w.q.0.q.4.m ] | | | | | | | | | | | | | | | | | | | ",
"                                        N ~ ~ ~ ^ ^ 4.0.0.0.0.0.0.q.q.q.d.z.n.q.0.0.w.1.4 | | | | | | | | | | | | | | | | | | | ",
"                                        N $.2.w.w.w.w.q.q.q.q.0.q.q.q.q.q.w.a.p.p.u.h.;.4 | | | | | | | | | | | | | | | | | | | ",
"                                        V ^ W 5.6.6.p.p.a.i.a.a.a.p.j.j.j.Z.K.A.c.p.q.@.4 | | | | | | | | | | | | | | | | | | | ",
"                                        V +.W W W W @.w.a.a.a.u.a.a.g.g.g.V.Z.m.q.0.0.@.4 | | | | | | | | | | | | | | | | | | | ",
"                                        V #.W W W W W 7.q.q.q.q.q.q.q.q.q.z.n.b.q.0.0.@.4 | | | | | | | | | | | | | | | | | | | ",
"                                        B O.W W W W W 7.0.q.0.q.q.q.q.q.q.j.m.n.0.9.0.@.4 | | | | | | | | | | | | | | | | | | | ",
"                                        . L @.W W W W 6.q.q.q.q.q.q.q.q.q.j.m.b.0.9.>.6 | | | | | | | | | | | | | | | | | | | | ",
"                                          @ p p p W W W 8.9.8.8.8.8.8.9.8.8.9.x j p s | | | | | | | | | | | | | | | | | | | | | ",
"                                                  e e t t r 3 w a a d d d d d a | | | | | | | | | | | | | | | | | | | | | | | | ",
"                                                                | } } } | | | | | | | | | | | | | | | | | | | | | | | | | | | | ",
"                                                                | | } } | | | | | | | | | | | | | | | | | | | | | | | | | | | | ",
"                                                                | | } | | | | | | | | | | | | | | | | | | | | | | | | | | | | | ",
"                                                                | | | | | | | | | | | | | | | | | | | | | | | | | | | | | | | | ",
"                                                                | | | | | | | | | | | | | | | | | | | | | | | | | | | | | | | | ",
"                                                                | | | | | | | | | | | | | | | | | | | | | | | | | | | | | | | | ",
"                                                                | | | | | | | | | | | | | | | | | | | | | | | | | | | | | | | | ",
"                                                                | | | | | | | | | | | | | | | | | | | | | | | | | | | | | | | | "
};
