/* XPM */
static char *_dc33a13d5a74d7a8ab5e895a5c7ac628ORgIMvmS66sYpb9[] = {
/* columns rows colors chars-per-pixel */
"64 64 150 2 ",
"   c #151225",
".  c #191625",
"X  c #1B1826",
"o  c #1F1B2A",
"O  c #211E2B",
"+  c #29242B",
"@  c #372B2B",
"#  c #352B32",
"$  c #423433",
"%  c #4A3D3B",
"&  c #54433C",
"*  c #524441",
"=  c #5E4C40",
"-  c #6F5848",
";  c #725B49",
":  c #7A6049",
">  c #656D7F",
",  c #686E7E",
"<  c #6D717D",
"1  c #9E7C57",
"2  c #997658",
"3  c #9D7F5D",
"4  c #867C73",
"5  c #887E75",
"6  c #877E79",
"7  c #A88156",
"8  c #A5825A",
"9  c #AB855B",
"0  c #AE895E",
"q  c #B18B5F",
"w  c #9B8673",
"e  c #91877E",
"r  c #AD8A62",
"t  c #A3886B",
"y  c #B28D62",
"u  c #B59165",
"i  c #BB9767",
"p  c #B6946A",
"a  c #B8956B",
"s  c #BD9A6D",
"d  c #A38C73",
"f  c #BD9B72",
"g  c #BEA27D",
"h  c #C29E6E",
"j  c #C29F72",
"k  c #C5A16F",
"l  c #C4A273",
"z  c #C8A575",
"x  c #C4A57B",
"c  c #C9A77A",
"v  c #CAAA7C",
"b  c #5B6D8D",
"n  c #5B7196",
"m  c #5C749E",
"M  c #656F8A",
"N  c #63718C",
"B  c #717483",
"V  c #787A86",
"C  c #707588",
"Z  c #757B89",
"A  c #647491",
"S  c #5D77A3",
"D  c #5D78A3",
"F  c #6078A4",
"G  c #8F8A86",
"H  c #928D8A",
"J  c #9F9685",
"K  c #AC9B87",
"L  c #A99989",
"P  c #B79D82",
"I  c #C0A685",
"U  c #CBAC83",
"Y  c #CBAF8A",
"T  c #CFB183",
"R  c #CFB38C",
"E  c #D1B186",
"W  c #D2B68D",
"Q  c #D5B98E",
"!  c #CAAF91",
"~  c #CFB793",
"^  c #D3B790",
"/  c #D6BB93",
"(  c #D8BD95",
")  c #D7BF9B",
"_  c #DBC29C",
"`  c #E0C79F",
"'  c #DDC5A2",
"]  c #DEC8A1",
"[  c #D1C2AD",
"{  c #D7C8AB",
"}  c #DFC9A9",
"|  c #D7CCB8",
" . c #E1CBA4",
".. c #E3CDAA",
"X. c #E5D1AE",
"o. c #E6D4B2",
"O. c #E9D6B3",
"+. c #EAD8B5",
"@. c #E6D4BA",
"#. c #EFDCBC",
"$. c #EFDFBE",
"%. c #EDDDBC",
"&. c #EDDABB",
"*. c #F1DEBD",
"=. c #E6D7C4",
"-. c #EEDDC1",
";. c #EFDEC2",
":. c #EDDCC1",
">. c #ECDDC2",
",. c #F0DFC5",
"<. c #EFE0C3",
"1. c #EFE0CD",
"2. c #F1E2C5",
"3. c #F1E1C5",
"4. c #F2E2C8",
"5. c #F3E5CB",
"6. c #F1E5CD",
"7. c #F3E4CF",
"8. c #F2E6CE",
"9. c #F5E6CF",
"0. c #F4E6CD",
"q. c #F4E6CE",
"w. c #F6E8CE",
"e. c #F6E7D4",
"r. c #F4E6D1",
"t. c #F3E8D2",
"y. c #F5E9D3",
"u. c #F7E8D3",
"i. c #F4E9D5",
"p. c #F5E8D7",
"a. c #F6E9D2",
"s. c #F8E9D4",
"d. c #F5EAD8",
"f. c #F7ECDA",
"g. c #F6EBDC",
"h. c #F9ECD9",
"j. c #F9EEDC",
"k. c #FAEFDD",
"l. c #F8EFDE",
"z. c #F9EDDB",
"x. c #F7F1E5",
"c. c #F7F1E4",
"v. c #F9F0E1",
"b. c #F9F1E5",
"n. c #F9F2E6",
"m. c #F7F3E9",
"M. c #F9F4EA",
"N. c #FCF9F3",
"B. c #FBFAF8",
"V. c #FDFDFC",
/* pixels */
"D D D D D D D D D D D D D D D D D D D D D D D D D D D D D D D D                                                                 ",
"D D D D D D D D D D D D D D D D D D D D D D D D D D D D D D D D                                                                 ",
"D D D D D D D D D D D D D D D D D D D D D D D D D D D D D D D D                                                                 ",
"D D D D D D D D D D D D D D D D D D D D D D D D S D D S D D D D                                                                 ",
"D D D D D D D D D D D D D D D D D D D D D D D D D D D D D D D D                                                                 ",
"D D D D D D D D D D D D D D D D D D D D D D D D S D D D D D d d                                                                 ",
"D D D D D D D D D D D D D D D D D D D D D D D D D D D D D w o.X.r                                                               ",
"D D D D D D D D D D D D D D D D D D D D D D D D D D D D 6 j o.k.O.3                                                             ",
"D D D D D D D D D D D D D D D D D D S S D D D D S S S , f ..+.O.B.@.-                                                           ",
"D D D D D D D D D D D D D D D D S D D D D D D D 0 p u r W o.O.o.+.@.y f f a                                                     ",
"D D D D D D D D D D D D D D D D D D D D D D D D 0 *.p.' 0 _ o.o.] q l d.k.f                                                     ",
"D D D D D D D D D D D D D D D D D D D D D D D D 9 $.O.o.( Q o.o.Q ( _ o.y.f                                                     ",
"D D D D D D D D D D D D D D D D D D D D D D D F 9 %.X.O.o.o.+.+.O.o.O.o.9.f                                                     ",
"D D D D D D D D D D D D D D D D D D D D F D D D 9 $._ p a ..o.o.e.f p ^ y.f                                                     ",
"D D D D D D D D D D D D D D D D S D D S D D D g l 9 q j y  .O.O.s.0 E U y ..{                                                   ",
"D D D D D D D D D D D D D D D D D D D D D D t k l l l / j ..o.O.f.y o.o.o.o.o.f                                                 ",
"D D D D D D D D D D D D D D D D D D S D D D g l l z o.O.O.l i i s O.o.o.o.o.o.o.                                                ",
"D D D D D D D D D D D D D D D D D D D D S D I l k c O.O.o.o.o.o.o.o.O.o.O.o.O.O.                                                ",
"D D D D D D D D D D D D D D D D D D D D S D [ T v c ..O.O.+.o.o.o.o.o.O.o.&.&.=.                                                ",
"D D D D D D D D D D D D D D D D D D D D D D B ~ _ W ( o.o.O.o.o.+.+.O.&.p.7.} *                                                 ",
"D D D D D D D D D D D D D D D D D S D D D D D 9 z Q E ..9.7.9.5.5.x.n.b.t.+.s                                                   ",
"D D D D D D D D D D D D D D D D D D D D D D D n y k l c ..&.*.$.&.>.n.k.$.v o                                                   ",
"D D D D D D D D D D D D D D D D D D D D D D D S 9 o.l l ] +.o.O.O.&.z.4.O.s                                                     ",
"D D D D D D D D D D D D D D D D D D D D D S D D r o.l k _ o.o.o.o.&.k.3.o.s                                                     ",
"D D D D D D D D D D D D D D D D D D D D D D D D S 0 c l l ..o.o.+.&.k.3.v .                                                     ",
"D D D D D D D D D D D D D D S D D D D D D D D D m u  .l l ..o.o.o.&.9.O.U X                                                     ",
"D D D D D D D D D D D D D D D D S D D F S D D n f l ] v z ] o.o.O.&.>.T ] O.O                                                   ",
"D D D D D D D D D D D D D D D D D D D D D D D ) W h s / c h _ _ _ ( E E ..>._                                                   ",
"D D D D D D D D D S D D D D D D D D D D D D D Z U ( / W W Q / / W ( >.g.7.] %                                                   ",
"D D D D D D D D D D D D D D D D D D D D D D D S A f f ' 9.9.9.9.M.n.>.! Y #                                                     ",
"D D D D D D D D D D D D D D D D D D D D D D D D D n M y a p s f s f u & .                                                       ",
"D D D D D D D D D D D D D D D D D D D D D D S D D D D < 7 l l k l h ;                                                           ",
"                                                      @ s l z z o...4 S D D D D D D D D D D D D D D D D D D D D D D D D D D D D ",
"                                                      @ s z o.O.o...5 D D D D D D D D D D D D D D D D D D D D D D D D D D D D D ",
"                                                      $ s l o.o.O...e S D D D D D D D D D D D D D D D D D D D D D D D D D D D D ",
"                                                    . u l l o.o.O.z.@.> D D S D D D D D D D D D D D D D D D D D D D D D D D D D ",
"                                                    o u l l o.o.+.f.@.> D D D D D D D D D D D D D D D D D D D D D D D D D D D D ",
"                                                    % s l l o.o.+.k.1.H m F D D D D D D D D D D D D D D D D D D D D D D D D D D ",
"                                                    q l l l o.o.O.k.n.W b D D D D D D D D D D D D D D D D D D D D D D D D D D D ",
"                                                    0 l l l o.o.O.k.m.W b D D D D D D D D D D D D D D D D D D D D D D D D D D D ",
"                                                  : h z l _ o.o.+.<.y...K m D D D D D D D D D D D D D D D D D D D D D D D D D D ",
"                                                  9 l l l ..o.o.o.&.9.O.x m D D D D D D D D D D D D D D D D D D D D D D D D D D ",
"                                                2 h l l l ..o.o.o.&.9.o...P F D D D D D D D D D D D D D D D D D D D D D D D D D ",
"                                                9 l l l _ o.o.o.o.+.h.3.o.j S D D D D D D D D D D D D D D D D D D D D D D D D D ",
"                                                9 z l l _ o.o.O.o.+.k.3.o.x m D D D D S S D D D D D D D D D D D D D D D D D D D ",
"                                              8 l l l z ] o.O.O.o.O.$.3.O.o.f D D D D D D D D D D D D D D D D D D D D D D D D D ",
"                                          O + r l l l Q O.O.o.o.o...+.z.$.o.U N A D D D D D D D D D D D D D D D D D D D D D D D ",
"                                          J W l l l l / O.O.o.O.o...&.k.5.o.o.W | D D D D D D D D D D D D D D D D D D D D D D D ",
"                                        # g O. .l l l Q o.o.o.o.o.o.+.$.$.+.o.m.U V D D D D D D D D D D D D D D D D D D D D D D ",
"                                      O p l c v X.l l c v U v v v v v o.M.B.k.&.X.] C D D D D D D D D D D D D D D D D D D D D D ",
"                                    . x W l l l z l T o.o.o.O.o.o.z.v.V.V.%.O.o.o.o.( b D D D D D D D D D D D D D D D D D D D D ",
"                                    . x ( l l l l c O.o.O.o.o.O.O.O.O.+.o.o.O.o.O.&.} A D D D D D D D D D D D D D D D D D D D D ",
"                                    X x &.&.v l c c o.O.O.O.o.O.o.o.o.O.o.O.+.+.b.M.( A D D D S D D D D D D D D D D D D D D D D ",
"                                    . x / l ` X.,.o.&.&.&.&.&.&.&.&.%.>.>.z.V.V.x.O.( A D D D D D D D D D D D D D D D D D D D D ",
"                                    X x / l z l l  .O.>.7.r.9.9.9.r.M.n.M.N.N.5.O.o.( A D D D S D D D D D D D D D D D D D D D D ",
"                                    . c / l l l l l l / O.O.o.O.O.O.o.o.w.z.z.o.o.O./ b D D D D D D D D D D D D D D D D D D D D ",
"                                      % R c l l l l l Q o.o.o.o.O.O.o.o.y.z.z.O.O. .G S D D D D D D D D D D D D D D D D D D D D ",
"                                        = _ c l l l l / o.o.O.O.o.O.O.O.9.z.z.o.o.L S D D D D D D D D D D D D D D D D D D D D D ",
"                                            1 9 l l l Q O.O.O.O.o.o.O.O.O.+.&.x S S D D D D D D D D D D D D D D D D D D D D D D ",
"                                                8 l l j l j l j O.O.O.O.+.x S D D D D S D D D S D D D D D D D D D D D D D D D D ",
"                                                                D D D D D D D F D S D S D D D D D D D D D D D D D D D D D D D D ",
"                                                                D D D D D D D D D D D D S F D D D D D D D D D D D D D D D D D D ",
"                                                                D D D D D D D D D D D D D D D D D D D D D D D D D D D D D D D D ",
"                                                                S D D D D D D D D D D D D D D D D D D D D D D D D D D D D D D D "
};
