/* XPM */
static char *fe1deb5e8a2a44c9c7d00e9dcd1a4237eUnPHiYC3AHTvLTH[] = {
/* columns rows colors chars-per-pixel */
"64 64 124 2 ",
"   c #000000",
".  c #151225",
"X  c #191524",
"o  c #1D1A23",
"O  c #161328",
"+  c #201A24",
"@  c #201A28",
"#  c #2F262B",
"$  c #372B2A",
"%  c #382C2C",
"&  c #4F4838",
"*  c #5F5442",
"=  c #655244",
"-  c #605249",
";  c #6B5F4D",
":  c #775D46",
">  c #75604D",
",  c #666D7F",
"<  c #6F7075",
"1  c #917658",
"2  c #9F7E5D",
"3  c #84786C",
"4  c #807772",
"5  c #857C72",
"6  c #887E75",
"7  c #988469",
"8  c #8C8279",
"9  c #918172",
"0  c #A18669",
"q  c #AE906C",
"w  c #B29166",
"e  c #BF9A6E",
"r  c #A98E70",
"t  c #A49377",
"y  c #A69579",
"u  c #BC9E78",
"i  c #BFA074",
"p  c #C09F74",
"a  c #C4A37A",
"s  c #5C6F8C",
"d  c #5B6F91",
"f  c #586F98",
"g  c #577196",
"h  c #5B749D",
"j  c #636D86",
"k  c #627387",
"l  c #6C7584",
"z  c #667288",
"x  c #6C778B",
"c  c #5D77A2",
"v  c #5D78A3",
"b  c #6078A4",
"n  c #35A4FE",
"m  c #9D9483",
"M  c #9E948A",
"N  c #AD9684",
"B  c #AA9880",
"V  c #C2AC8C",
"C  c #D1B68E",
"Z  c #C5B091",
"A  c #C1B29D",
"S  c #D4BB94",
"D  c #D9BD95",
"F  c #D5BE9A",
"G  c #DBC4A6",
"H  c #DFC9A4",
"J  c #DEC9AC",
"K  c #CAC1B0",
"L  c #D7CBB1",
"P  c #E2CBA6",
"I  c #E3CDAA",
"U  c #E6D2AE",
"Y  c #E9D5AF",
"T  c #E1CDB4",
"R  c #E7D5B2",
"E  c #E9D6B3",
"W  c #E7D8B1",
"Q  c #EAD8B5",
"!  c #E6D6BF",
"~  c #EAD6BA",
"^  c #ECDBBB",
"/  c #F1DEBC",
"(  c #EEDFC0",
")  c #EFE0C3",
"_  c #F1E1C5",
"`  c #F3E4CC",
"'  c #F4E8CE",
"]  c #F3E6D1",
"[  c #F6E9D5",
"{  c #F8EAD5",
"}  c #F6EDDB",
"|  c #F8EBD8",
" . c #F8EBDA",
".. c #F9ECD9",
"X. c #F8EDD9",
"o. c #F8EDDB",
"O. c #F8ECDC",
"+. c #FBEEDD",
"@. c #F8ECDE",
"#. c #F8EFDE",
"$. c #FAEEDE",
"%. c #F9ECDA",
"&. c #F8F0DD",
"*. c #F7F1E3",
"=. c #F7F1E5",
"-. c #F9F1E4",
";. c #F9F0E1",
":. c #F7F4ED",
">. c #F9F2E8",
",. c #FAF3E9",
"<. c #F8F7F2",
"1. c #FBF6F2",
"2. c #FAF9F5",
"3. c #FCFAF5",
"4. c #FFFFFB",
"5. c gray99",
"6. c #FEFEFC",
"7. c #FFFFFD",
"8. c #FFFDFE",
"9. c #FFFDFF",
"0. c #FDFFFE",
"q. c #FEFEFE",
"w. c white",
"e. c #FEFDFB",
/* pixels */
"v v v v v v v v v v v v v v v v v v v v v v v v v v v v v v v v . . . . . . . . . . . . . . . . . . . . . . . . . . . . . . . . ",
"v v v v v v v v v v v v v v v v v v v v v v v v v v v v v v v v . . . . . . . . . . . . . . . . . . . . . . . . . . . . . . . . ",
"v v v v v v v v v v v v v v v v v v v v v v v v c v v v v v v v . . . O . . . . . . . . . . . . . . . . . . . . . . . . . . . . ",
"v v v v v v v v v v v v v v v v v v v v v v v v v c v v c v v v . . . . . . . . . . . . . . . . . . . . . . . . . . . . . . . . ",
"v v v v v v v v v v v v v v v v v v v v v v v v v v v v v v v v . . . . . . . . . . . . . . . . . . . . . . . . . . . . . . . . ",
"v v v v v v v v v v v v v v v v v v v v v v v v v v v v c v v v . . . . . . . . . . . . . . . . . . . . . . . . . . . . . . . . ",
"v v v v v v v v v v v v v v v v v v v v v v v v v v v v v c r q . . . . . . . . . . . . . . . . . . . . . . . . . . . . . . . . ",
"v v v v v v v v v v v v v v v v v v v v v v v v v v v v v 7 R R w . . . . . . . . . . . . . . . . . . . . . . . . . . . . . . . ",
"v v v v v v v v v v v v v v v v v v v v c v v v v v v v 5   R } R 2 . . . . . . . . . . . . . . . . . . . . . . . . . . . . . . ",
"v v v v v v v v v v v v v v v v v v v c v v v v g f g <   U E E <.~ : . . . O O . . . . . . . . . . . . . . . . . . . . . . . . ",
"v v v v v v v v v v v v v v v v v v v v v v v v           Y Q R E G         . . . . . . . . . . . . . . . . . . . . . . . . . . ",
"v v v v v v v v v v v v v v v v v b v v v v v v   / ` G     R R       ' o.  6.. . . . . . . . . . . . . . . . . . . . . . . . . ",
"v v v v v v v v v v v v v v v v v v v v v v v v   ( U R I S R E S P I Y [ 6.n 6.. . . . . . . . . . . . . . . . . . . . . . . . ",
"v v v v v v v v v v v v v v v v v v v v v v v v   ^ U R R E R R E R R E ` 6.n 6.. . . . . . . . . . . . . . . . . . . . . . . . ",
"v v v v v v v v v v v v v v v v v v v v v v v v   ^       P Q R  .      6.n n n 6.. . . . . . . . . . . . . . . . . . . . . . . ",
"v v v v v v v v v v v v v v v v v v v c v v c             P E E {       6.n n n 6.. . . . . . . . . . . . . . . . . . . . . . . ",
"v v v v v v v v v v v v v v v v c v v v v v           *   H U U ]   Y 6.n n n n n 6.O . . . . . . . . . . . . . . . . . . . . . ",
"v v v v v v v v v v v v v v v v v v v v v v         R W E         E R 6.n n n n n 6.. . . . . . . . . . . . . . . . . . . . . . ",
"v v v v v v v v v v v v v v v v v c v v v v         R E E R E R R R 6.n n n n n n n 6.. . . . . . . . . . . . . . . . . . . . . ",
"v v v v v v v v v v v v v v v v v c v v v v   P V     R E Q E E Q R 6.n n n n n n n 6.. . . . . . . . . . . . . . . . . . . . . ",
"v v v v v v v v v v v v v v v v v v v v v v g     R U E E E E R E R e.n n n n n n n 6.. . . . . . . . . . . . . . . . . . . . . ",
"v v v v v v v v v v v v v v v v v v v v v v v         J o.} o.o.| 6.6.n n n n n n n 6.. . . . . . . . . . . . . . . . . . . . . ",
"v v v v v v v v v v v v v v v v c v v v v v v v         V E E E R Q O.6.n n n n n 6.. . . . . . . . . . . . . . . . . . . . . . ",
"v v v v v v v v v v v v v v v v v v v v v v v v   R     V E R R R ^ | _ 6.6.6.6.6.. . . . . . O . . . . . . . . . . . . . . . . ",
"v v v v v v v v v v v v v v v v v v v v c v v v 4         R R R R ^ O._ H > . . . . . . . . . . . . . . . . . . . . . . . . . . ",
"v v v v v v v v v v v v v v v v v v v v v v v v h         I R R R Q } (   X . . . . . . . . . . . . . . . . . . . . . . . . . . ",
"v v v v v v v v v v v v v v v v v v v v v v v v 8   P     P E R E ^ ` V   9 . . . . . . . . . . . . . . . . . . . . . . . . . . ",
"v v v v v v v v v v v v v v v v c v c v v v v K       P     Y Q E U     P E A . . . . . . . . . . . . . . . . . . . . . . . . . ",
"v v v v v v v v v v v v v v v v v v v v v v v   E                   R E Y [   . . . . . . . . . . . . . . . . . . . . . . . . . ",
"v v v v v v v v v v v v v v v v v v c v v v v v   ^ E E Q Q R E Q Q ` 6.-.  . . . . . . . . . . . . . . . . . . . . . . . . . . ",
"v v v v v v v v v v v v v v v v v v v v v v v c c       [ [ { [ 2.<.T     . . . . . . . . . . . . . . . . . . . . . . . . . . . ",
"v v v v v v v v v v v v v v v v v v v v v v v v v v d                 # . . . . . . . . . . . . . . . . . . . . . . . . . . . . ",
". . . . . . . . . . . . . . . . . . . . . . . . . . . $             3 v v v v v v v v v v v v v v v v v v v v v v v v v v v v v ",
". . . . . . . . . . . . . . . . . . . . . . . . . . . $     & V Q P 5 v v v v v v v v v v v v v v v v v v v v v v v v v v v v v ",
". . . . . . . . . . . . . . . . . . . . . . . . . . . %     R R R P 6 v v v v v v v v v v v v v v v v v v v v v v v v v v v v v ",
". . . . . . . . . . . . . . . . . . . . . . . . . . X       E R E [ J j v v v v v v v v v v v v v v v v v v v v v v v v v v v v ",
". . . . . . . . . . . . . . . . . . . . . . . . . . o       U R E o.! , c v v v v v v v v v v v v v v v v v v v v v v v v v v v ",
". . . . . . . . . . . . . . . . . . . . . . . . . . +       R R Q O.~ l v v v v v v v v v v v v v v v v v v v v v v v v v v v v ",
". . . . . . . . . . . . . . . . . . . . . . . . . .         U R Q &.=.C s v v v v v v v v v v v v v v v v v v v v v v v v v v v ",
". . . . . . . . . . . . . . . . . . . . . . . . . .         R R E O.>.C s c v v v v v v v v v v v v v v v v v v v v v v v v v v ",
". . . . . . . . . . . . . . . . . . . . . . . . . @         R E R } *.S z c v v v v v v v v v v v v v v v v v v v v v v v v v v ",
". . . . . . . . . . . . . . . . . . . . . . . . .         I E R R ^ ` R a g v v v v v c v v c v v v v v v v v v v v v v v v v v ",
". . . . . . . . . . . . . . . . . . . . . . . . #         I R R R Q ' R C x v v v v v v v v v v v v v v v v v v v v v v v v v v ",
". . . . . . . . . . . . . . . . . . . . . . . .           U E E R Q [ ^ E p h v v v v c v v v v v v v v v v v v v v v v v v v v ",
". . . . . . . . . . . . . . . . . . . . . . . .         t E R E R Q o._ R i h v v v v v v v c v v v v v v v v v v v v v v v v v ",
". . . . . . . . . . . . . . . . . . . . . . .           y R R R R Y _ _ R Y u v v v v v v v v v v v v v v v v v v v v v v v v v ",
". . . . . . . . . . . . . . . . . . . . . . .           R R R E R I Q | ^ Q e h c c v v v v v v v v v v v v v v v v v v v v v v ",
". . . . . . . . . . . . . . . . . . . . . m             R R R R R P Q +.( R R a L v v v v v v v v v v v v v v v v v v v v v v v ",
". . . . . . . . . . . . . . . . . . . . X B E           E R E R R R ^ ` ` Q R ' F d v v v v v c v v v v v v v v v v v v v v v v ",
". . . . . . . . . . . . . . . . . . . X 1       ;                     E [ } ' ] F Z s v v v v v v v v v v v v v v v v v v v v v ",
". . . . . . . . . . . . . . . . . . X 0               P P H P P P ` ` :.6.` ^ R R U V d v v v v v v v v v v v v v v v v v v v v ",
". . . . . . . . . . . . . . . . . . X               R E R R R E R E Q ^ ^ R R R R ^ I k c v v v v v v v v v v v v v v v v v v v ",
". . . . . . . . . . . . . . . . . . X   / ^         R R E R R E R R R R R R R R ;.>.D k v v c v v v v v v v v v v v v v v v v v ",
". . . . . . . . . . . . . . . . . . X       I E { R E E Q E Q E R Q E ~ Q [ 6.6.2.Q D k v c v v v v v v v v v v v v v v v v v v ",
". . . . . . . . . . . . . . . . . . X             E ` ' [ [ [ [ { } 3.3.e.e.3.[ Q R D k v c v v v v v v v v v v v v v v v v v v ",
". . . . . . . . . . . . . . . . . . X                   E R E R E R R E ` o.o.E R E S s v v v v v v v v v v v v v v v v v v v v ",
". . . . . . . . . . . . . . . . . . . -                 R R E R E R R R ] X.o.E R I M g v v v v v v v v v v v v v v v v v v v v ",
". . . . . . . . . . . . . . . . . . . . = ;             E R R E R R Q E ` o.o.R R N h v v c c v v v v v v v v v v v v v v v v v ",
". . . . . . . . . . . . . . . . . . . . . .             R E E R R R E Q E Q Q a h c v v v v v v v v v v v v v v v v v v v v v v ",
". . . . . . . . . . . . . . . . . . . . . . . .                 E E R E E a h v v v v v v c v v v v v v v v v v v v v v v v v v ",
". . . . . . . . . . . . . . . . . . . . . . . . . . . . . . . . v v c v v v v v v v v v v v v v v v v v v v v v v v v v v v v v ",
". . . . . . . . . . . . . . . . . . . . . . . . . . . . . . . . v c v c v v v v v c v v v v v v v v v v v v v v v v v v v v v v ",
". . . . . . . . . . . . . . . . . . . . . . . . . . . . . . . . v c v v v v v v v v v v v v c v v v v v v v v v v v v v v v v v ",
". . . . . . . . . . . . . . . . . . . . . . . . . . . . . . . . v v v v v v v v v c v v c v v v v v v v v v v v v v v v v v v v "
};
