/* XPM */
static char *a6d0caf145a147a9923efcfcdce8f895PrJe606RzcV6K48A[] = {
/* columns rows colors chars-per-pixel */
"64 64 163 2 ",
"   c #0B0916",
".  c #0D0B1A",
"X  c #110E1D",
"o  c #0F121A",
"O  c #111216",
"+  c #1D1717",
"@  c #12111A",
"#  c #221816",
"$  c #241A19",
"%  c #291E18",
"&  c #3E2516",
"*  c #342218",
"=  c #0F0E20",
"-  c #110E23",
";  c #120F2C",
":  c #0F1025",
">  c #151225",
",  c #191627",
"<  c #1C1F26",
"1  c #161429",
"2  c #19162C",
"3  c #17192A",
"4  c #1A192E",
"5  c #141130",
"6  c #171A31",
"7  c #1B1A32",
"8  c #1E1C39",
"9  c #211E37",
"0  c #221F3B",
"q  c #1D2235",
"w  c #1F253A",
"e  c #26272C",
"r  c #35302C",
"t  c #202636",
"y  c #2B2C32",
"u  c #23213D",
"i  c #22293B",
"p  c #313236",
"a  c #32353A",
"s  c #3C3A3F",
"d  c #412517",
"f  c #5B3713",
"g  c #5C3815",
"h  c #5C3819",
"j  c #623D14",
"k  c #6E4316",
"l  c #6E4519",
"z  c #744817",
"x  c #50463D",
"c  c #72593A",
"v  c #252442",
"b  c #282645",
"n  c #272946",
"m  c #282947",
"M  c #25274D",
"N  c #262B4A",
"B  c #292D4D",
"V  c #273246",
"C  c #283047",
"Z  c #2A334C",
"A  c #2C384E",
"S  c #3F3E45",
"D  c #353349",
"F  c #292E50",
"G  c #2C3252",
"H  c #2E3854",
"J  c #2F3A5B",
"K  c #303656",
"L  c #32375D",
"P  c #323B5C",
"I  c #353D61",
"U  c #314057",
"Y  c #34435C",
"T  c #374262",
"R  c #354162",
"E  c #374164",
"W  c #354264",
"Q  c #364365",
"!  c #364366",
"~  c #374567",
"^  c #364163",
"/  c #384363",
"(  c #384265",
")  c #384567",
"_  c #384565",
"`  c #394867",
"'  c #354368",
"]  c #374568",
"[  c #36466A",
"{  c #384568",
"}  c #384768",
"|  c #384669",
" . c #394669",
".. c #39476A",
"X. c #38466B",
"o. c #3A476A",
"O. c #39456B",
"+. c #38486A",
"@. c #3A486B",
"#. c #394869",
"$. c #3A486D",
"%. c #3D4E6C",
"&. c #44434B",
"*. c #4C4D51",
"=. c #50535A",
"-. c #59585D",
";. c #65686F",
":. c #74787B",
">. c #CF0D0D",
",. c #CF0D0D",
"<. c #D00D0D",
"1. c #9D671F",
"2. c #815524",
"3. c #875A23",
"4. c #8E5F22",
"5. c #905F25",
"6. c #8E6024",
"7. c #9D6722",
"8. c #9E6821",
"9. c #A06721",
"0. c #495B81",
"q. c #4B5E85",
"w. c #4C5E86",
"e. c #4D5F85",
"r. c #4F638B",
"t. c #506489",
"y. c #556E97",
"u. c #556C96",
"i. c #586F92",
"p. c #566F98",
"a. c #566E99",
"s. c #586F98",
"d. c #547097",
"f. c #56729C",
"g. c #59729B",
"h. c #5A739C",
"j. c #5A719E",
"k. c #5C739D",
"l. c #5D769F",
"z. c #59719B",
"x. c #7A7F85",
"c. c #5873A0",
"v. c #5A75A0",
"b. c #5C77A2",
"n. c #5F77A3",
"m. c #5E76A1",
"M. c #5D76A5",
"N. c #5D77A2",
"B. c #5D79A1",
"V. c #5C79A1",
"C. c #5D78A3",
"Z. c #5C79A3",
"A. c #5D78A5",
"S. c #5C79A5",
"D. c #5E79A4",
"F. c #5C78A7",
"G. c #5E79A6",
"H. c #5D78A3",
"J. c #5E79A8",
"K. c #5F7BAA",
"L. c #6078A6",
"P. c #868B92",
"I. c #898C94",
/* pixels */
"C.C.C.C.C.C.C.C.C.C.C.C.C.C.C.C.A.A.A.C.C.C.b.C.C.C.C.b.C.C.b.C.> > > > > > > > > > > > > > > > > > > > > > > > > > > > > > > > ",
"C.C.C.C.C.C.C.C.C.C.C.C.C.C.C.C.C.C.C.C.C.C.b.C.M.C.C.C.C.C.C.C.> > > > > > > > > > > > > > > > > > > > > > > > > > > > > > > > ",
"C.C.C.C.C.C.C.C.C.C.C.C.C.C.C.C.C.C.C.C.b.b.C.C.C.b.C.C.4 > g.b.> > > > > > > > > > > > > > > > > > > > > > > > > > > > > > > > ",
"C.C.C.C.C.C.C.C.C.C.C.C.C.C.C.C.A.C.b.C.C.C.C.C.C.C.C.q u v 2 j.> > > > > > > > > > > > > > > > > > > > > > > > > > > > > > > > ",
"C.C.C.C.C.C.C.C.C.C.C.C.C.C.C.C.C.C.C.C.C.C.C.C.C.C.w u W b.m , > > > > > > > > > > > > > > > > > > > > > > > > > > > > > > > > ",
"C.C.C.C.C.C.C.C.C.C.C.C.C.C.C.C.C.C.C.C.C.b.b.b.C.q u W } @.M.M = > > > > > > > > > > > > > > > > > > > > > > > > > > > > > > > ",
"C.C.C.C.C.C.C.C.C.C.C.C.C.C.C.C.C.C.C.C.C.i > > > > T } ] @.@.M.1 - - X . > > > > > > > > > > > > > > > > > > > > > > > > > > > ",
"C.C.C.C.C.C.C.C.C.C.C.C.C.C.C.C.C.C.C.C.C.w P j.B , > W } } } 2 > v b.C.> > > > > > > > > > > > > > > > > > > > > > > > > > > > ",
"C.C.C.C.C.C.C.C.C.C.C.C.C.C.C.C.C.C.C.C.A.w P } k.B v 2 W } 1 v v ) @.L.> > > > > > > > > > > > > > > > > > > > > > > > > > > > ",
"C.C.C.C.C.C.C.C.C.C.C.C.C.C.C.C.C.C.C.C.A.i P } } } ] } } } } } } } } K.> > > > > > > > > > > > > > > > > > > > > > > > > > > > ",
"C.C.C.C.C.C.C.C.C.C.C.C.C.C.C.C.C.C.C.C.A.t P } ) ] } ] } } $.} ~ ~ ] A.> > > > > > > > > > > > > > > > > > > > > > > > > > > > ",
"C.C.C.C.C.C.C.C.C.C.C.C.C.C.C.C.C.C.C.C.l.t P } 3 > v / } } C.n > 1 / b.> > > > > > > > > > > > > > > > > > > > > > > > > > > > ",
"C.C.C.C.C.C.C.C.C.C.C.C.C.C.C.C.C.C.C.l.Z v 2 > > > > T } } A.3 > v 1 > v 8 > > > > > > > > > > > > > > > > > > > > > > > > > > ",
"C.C.C.C.C.C.C.C.C.C.C.C.C.C.C.C.A.b.C.G v , > 1 > u 2 I } ` b.4 v v v v v b 7 > > > > > > > > > > > > > > > > > > > > > > > > > ",
"C.C.C.C.C.C.C.C.C.C.C.C.C.C.C.C.A.C.C.G 2 > > > > u v v T ) b v v > v v v v 8 > > > > > > > > > > > > > > > > > > > > > > > > > ",
"C.C.C.C.C.C.C.C.C.C.C.C.C.C.C.C.A.C.C.G 2 > > > > > u v v v v v > 1 v v v v 0 > > > > > > > > > > > > > > > > > > > > > > > > > ",
"C.C.C.C.C.C.C.C.C.C.C.C.C.C.C.C.C.C.C.] B 7 1 > > > > > > 1 1 1 1 v v v v N J > > > > > > > > > > > > > > > > > > > > > > > > > ",
"C.C.C.C.C.C.C.C.C.C.C.C.C.C.C.C.C.C.C.A H T N 4 1 > > > > u v v v v b B W g.. > > > > > > > > > > > > > > > > > > > > > > > > > ",
"C.C.C.C.C.C.C.C.C.C.C.C.C.C.C.C.A.C.C.C.i > P T N 7 2 4 2 v b B B B ( j., @ > > > > > > > > > > > > > > > > > > > > > > > > > > ",
"C.C.C.C.C.C.C.C.C.C.C.C.C.C.C.C.C.C.A.C.H > > > P T T W ' W ' j.c.j.v u >   > > > > > > > > > > > > > > > > > > > > > > > > > > ",
"C.C.C.C.C.C.C.C.C.C.C.C.C.C.C.C.C.C.C.C.C.i > > > > > u v v v u v v u u - > > > > > > > > > > > > > > > > > > > > > > > > > > > ",
"C.C.C.C.C.C.C.C.C.C.C.C.C.C.C.C.C.C.C.C.C.w > > > > > > v v v v v v v > - > > > > > > > > > > > > > > > > > > > > > > > > > > > ",
"C.C.C.C.C.C.C.C.C.C.C.C.C.C.C.C.C.C.C.C.C.H > > > > > > u v v v v v u >   > > > > > > > > > > > > > > > > > > > > > > > > > > > ",
"C.C.C.C.C.C.C.C.C.C.C.C.C.C.C.C.C.C.A.C.C.C.q > > > > > u v v v v v > X > > > > > > > > > > > > > > > > > > > > > > > > > > > > ",
"C.C.C.C.C.C.C.C.C.C.C.C.C.C.C.C.C.C.C.b.C.y.q > > 1 > > > u v v u u > > - > > > > > > > > > > > > > > > > > > > > > > > > > > > ",
"C.C.C.C.C.C.C.C.C.C.C.C.C.C.C.C.C.A.C.C.p.B v 1 > > > > > u v v u 1 > v 0 > > > > > > > > > > > > > > > > > > > > > > > > > > > ",
"C.C.C.C.C.C.C.C.C.C.C.C.C.C.C.C.C.C.A.C.R B b 7 , 2 1 > > > 9 u , , 2 v N Z > > > > > > > > > > > > > > > > > > > > > > > > > > ",
"C.C.C.C.C.C.C.C.C.C.C.C.C.C.C.C.C.C.b.C.Y G F B b v 2 2 2 2 2 2 v P L B H   > > > > > > > > > > > > > > > > > > > > > > > > > > ",
"C.C.C.C.C.C.C.C.C.C.C.C.C.C.C.C.C.C.A.C.C.Y G P u B B B B B P P I w.w.J   > > > > > > > > > > > > > > > > > > > > > > > > > > > ",
"C.C.C.C.C.C.C.C.C.C.C.C.C.C.C.C.C.A.C.C.C.C.Y C > G P H H H 0.q.q.1     > > > > > > > > > > > > > > > > > > > > > > > > > > > > ",
"C.C.C.C.C.C.C.C.C.C.C.C.C.C.C.C.C.C.C.b.A.C.A.C.Y 4 > > > 1 > 7 >   > > > > > > > > > > > > > > > > > > > > > > > > > > > > > > ",
"C.C.C.C.C.C.C.C.C.C.C.C.C.C.C.C.C.C.A.b.b.C.C.C.A.N , > > > 7 v > > > > > > > > > > > > > > > > > > > > > > > > > > > > > > > > ",
"> > > > > > > > > > > > > > > > > > > > > > > > > 5 , > > 4 v v > k.A.C.C.C.C.C.b.C.b.A.C.C.C.C.C.C.C.C.C.C.C.C.C.C.C.C.C.C.C.C.",
"> > > > > > > > > > > > > >., > > > > > > > > > > - 1 > > v v v 1 v.C.C.C.C.C.A.C.C.b.C.A.C.C.C.C.C.C.C.C.C.C.C.C.C.C.C.C.C.C.C.",
"> > > > > > > > > > > > >.y >.>.>.<.>.>.>.>.>.>.>.<.<.>.<.>.>.<.>.%.A.C.C.C.C.C.C.C.C.C.C.C.C.C.C.C.C.C.C.C.C.C.C.C.C.C.C.C.C.C.",
"> > > > > > > > > > > >.e a @ @ @ @ @ @ o @ @ @ O O o @ O @ @ @ >.,.v.C.A.A.C.C.b.C.C.A.C.C.C.C.C.C.C.C.C.C.C.C.C.C.C.C.C.C.C.C.",
"> > > > > > > > > > > >.e x.P.P.P.P.I.I.P.I.P.P.I.P.P.I.P.P.;.=.:.-.>.<.>.>.>.C.C.b.C.C.C.b.C.C.C.C.C.C.C.C.C.C.C.C.C.C.C.C.C.C.",
"> > > > > > > > > > > >.e p a a a a a a a a a a a a a a a a e < a y @ @ @ @ s >.<.>.C.C.C.A.C.C.C.C.C.C.C.C.C.C.C.C.C.C.C.C.C.C.",
"> > > > > > > > > > > > >.y o @ @ @ @ @ @ @ @ @ o @ @ @ @ @ O < r h 8.7.7.9.3.@ @ y >.C.C.C.C.C.C.C.C.C.C.C.C.C.C.C.C.C.C.C.C.C.",
"> > > > > > > > > > > > > >.>.<.<.S 2.9.1.1.8.9.7.8.c *.*.*.*.*.x j l k k l l l z 6.e >.C.C.C.C.C.C.C.C.C.C.C.C.C.C.C.C.C.C.C.C.",
"> > > > > > > > > > > > > > > > <.S * & & & & d & & $ @ @ @ @ @ % g h h g g f f j 4.e >.C.C.C.C.C.C.C.C.C.C.C.C.C.C.C.C.C.C.C.C.",
"> > > > > > > > > > > > > > > > > >.&.@ @ @ @ X @ @ >.>.>.>.>.<.O @ @ # g h g g j 4.e >.C.C.A.C.C.C.C.C.C.C.C.C.C.C.C.C.C.C.C.C.",
"> > > > > > > > > > > > > > > > > > >.<.>.<.>.>.>.<.>.> u >.>.>.<.>.>.<.@ @ + h j 5.e >.C.C.b.C.C.C.C.C.C.C.C.C.C.C.C.C.C.C.C.C.",
"> > > > > > > > > > > > > > > > > > > > > > , > > > > > u v ,.<.v v v D >.<.>.+ j 5.e ,.C.C.C.C.C.C.C.C.C.C.C.C.C.C.C.C.C.C.C.C.",
"> > > > > > > > > > > > > > > > > > > > > . > > > > > > v v v v v v v v > C.i.<.@ @ e <.A.C.b.C.C.C.C.C.C.C.C.C.C.C.C.C.C.C.C.C.",
"> > > > > > > > > > > > > > > > > > > > X . 1 > > > > > u v v v v v v v 8 U C.i.>.>.>.C.C.C.C.C.C.C.C.C.C.C.C.C.C.C.C.C.C.C.C.C.",
"> > > > > > > > > > > > > > > > > > > > - , > > > > > 9 v b v v v v v v v > b.C.b.b.b.b.A.C.C.C.C.C.C.C.C.C.C.C.C.C.C.C.C.C.C.C.",
"> > > > > > > > > > > > > > > > > > X - > > > > > > > v v v b v v v v v v > Z Y b.C.C.C.C.C.A.C.C.C.C.C.C.C.C.C.C.C.C.C.C.C.C.C.",
"> > > > > > > > > > > > > > > > > > ; v 2 > > > > > > v v v v v v v v v 2 > u v C.C.C.C.C.C.C.C.C.C.C.C.C.C.C.C.C.C.C.C.C.C.C.C.",
"> > > > > > > > > > > > > > > > > . : u 0 0 1 > > > > 2 v v v v v v v 4 1 0 P 2 H C.C.C.b.C.C.C.C.C.C.C.C.C.C.C.C.C.C.C.C.C.C.C.",
"> > > > > > > > > > > > > > > >   1 , , 2 K v u u 1 > > 2 2 2 2 4 2 I t.r.I 8 > 0 Z C.b.C.C.C.C.C.C.C.C.C.C.C.C.C.C.C.C.C.C.C.C.",
"> > > > > > > > > > > > > > >   1 v 2 > > 7 2 , P v u 0 u u 0 P J r.d.K.n 7 > > v w V C.A.A.C.C.C.C.C.C.C.C.C.C.C.C.C.C.C.C.C.C.",
"> > > > > > > > > > > > > > >   G B u 0 1 > > > 7 , , 1 , 2 , 7 7 v i i > > u 0 v P u C.C.C.C.C.C.C.C.C.C.C.C.C.C.C.C.C.C.C.C.C.",
"> > > > > > > > > > > > > > >   4 H T N u u 0 1 > > > > > > > 1 > > > u u u v T u.N v C.C.C.C.C.C.C.C.C.C.C.C.C.C.C.C.C.C.C.C.C.",
"> > > > > > > > > > > > > > >   > 4 7 H T W b u u u u u u u u u u u u v T p.p.f.G v v C.C.C.C.C.C.C.C.C.C.C.C.C.C.C.C.C.C.C.C.C.",
"> > > > > > > > > > > > > > >   > > > 6 7 6 P W T W W W W W W u.p.y.s.p.j.K.G G v b v b.C.C.C.C.C.C.C.C.C.C.C.C.C.C.C.C.C.C.C.C.",
"> > > > > > > > > > > > > > >   > > > > > > 4 4 4 4 4 3 4 4 b B B B F B B G v v v v v C.C.C.C.C.C.C.C.C.C.C.C.C.C.C.C.C.C.C.C.C.",
"> > > > > > > > > > > > > > > - 4 > > > > > > > > > > > > > u v v v v v v v v b v v 3 C.C.C.C.C.C.C.C.C.C.C.C.C.C.C.C.C.C.C.C.C.",
"> > > > > > > > > > > > > > > > - 2 > > > > > > > > > > > u v v v v v v v v b v v 1 u.C.C.C.C.C.C.C.C.C.C.C.C.C.C.C.C.C.C.C.C.C.",
"> > > > > > > > > > > > > > > > > - 1 > > > > > > > > > > u v v v v v v v v u v , d.C.b.C.A.A.C.C.C.C.C.C.C.C.C.C.C.C.C.C.C.C.C.",
"> > > > > > > > > > > > > > > > > > > ; , > > > > > > > > v v v v v v v v v 1 y.g.C.C.C.C.C.C.C.C.C.C.C.C.C.C.C.C.C.C.C.C.C.C.C.",
"> > > > > > > > > > > > > > > > > > > > >   > > > > > > > > u v v v v v 1 y.p.C.A.A.C.M.C.C.C.C.C.C.C.C.C.C.C.C.C.C.C.C.C.C.C.C.",
"> > > > > > > > > > > > > > > > > > > > > > > > > > > > > > > > g.j.g.p.g.b.A.C.C.C.C.C.C.C.C.C.C.C.C.C.C.C.C.C.C.C.C.C.C.C.C.C.",
"> > > > > > > > > > > > > > > > > > > > > > > > > > > > > > > > C.C.C.C.C.C.C.C.A.C.C.C.b.C.C.C.C.C.C.C.C.C.C.C.C.C.C.C.C.C.C.C."
};
