/* XPM */
static char *ca8fb5f1d591475bbae09a48fd6010b1mXu4FemUv0Tkt6RJ[] = {
/* columns rows colors chars-per-pixel */
"64 64 163 2 ",
"   c #0C0A17",
".  c #0D0B19",
"X  c #100E1E",
"o  c #0F1217",
"O  c #0F1219",
"+  c #111217",
"@  c #1E1717",
"#  c #12111A",
"$  c #231816",
"%  c #241A19",
"&  c #291E1A",
"*  c #3E2615",
"=  c #342218",
"-  c #3F2518",
";  c #0F0D24",
":  c #110F23",
">  c #120F2C",
",  c #151225",
"<  c #191224",
"1  c #1C1F26",
"2  c #16152A",
"3  c #19162C",
"4  c #17192A",
"5  c #1A192D",
"6  c #141130",
"7  c #1B1730",
"8  c #171A31",
"9  c #1B1B33",
"0  c #1F1D39",
"q  c #211F2D",
"w  c #211E37",
"e  c #221F3B",
"r  c #1D2235",
"t  c #1F2639",
"y  c #26262B",
"u  c #27282C",
"i  c #292A2F",
"p  c #35302C",
"a  c #2C2D32",
"s  c #22223C",
"d  c #232A3B",
"f  c #313236",
"g  c #323539",
"h  c #3C3A3F",
"j  c #402615",
"k  c #402519",
"l  c #5B3713",
"z  c #5C3815",
"x  c #5C3819",
"c  c #623D14",
"v  c #6F4417",
"b  c #6D4618",
"n  c #734917",
"m  c #50463D",
"M  c #7F5723",
"N  c #735A3B",
"B  c #252442",
"V  c #282746",
"C  c #262946",
"Z  c #282947",
"A  c #262B4A",
"S  c #292D4C",
"D  c #273247",
"F  c #2A334C",
"G  c #2C384E",
"H  c #323347",
"J  c #3E3E43",
"K  c #292F52",
"L  c #2C3352",
"P  c #2E3855",
"I  c #2E3A5A",
"U  c #313855",
"Y  c #31375B",
"T  c #323C5C",
"R  c #353E63",
"E  c #314057",
"W  c #34435D",
"Q  c #374262",
"!  c #364162",
"~  c #374164",
"^  c #354264",
"/  c #364366",
"(  c #364365",
")  c #374467",
"_  c #374667",
"`  c #354465",
"'  c #354163",
"]  c #384363",
"[  c #384265",
"{  c #384567",
"}  c #384565",
"|  c #384162",
" . c #354569",
".. c #374669",
"X. c #384768",
"o. c #384669",
"O. c #394669",
"+. c #39476A",
"@. c #38466B",
"#. c #39466A",
"$. c #394869",
"%. c #38486A",
"&. c #3A486B",
"*. c #3A486D",
"=. c #444349",
"-. c #4C4D52",
";. c #50535A",
":. c #58575C",
">. c #495B7F",
",. c #666970",
"<. c #74787B",
"1. c #CF0D0D",
"2. c #D00D0D",
"3. c #9D671F",
"4. c #9C681F",
"5. c #8B5D23",
"6. c #905F24",
"7. c #8F6125",
"8. c #9D6723",
"9. c #9E6821",
"0. c #A06721",
"q. c #4B5E84",
"w. c #4D5F86",
"e. c #4F638A",
"r. c #556E97",
"t. c #556D96",
"y. c #566F98",
"u. c #566E99",
"i. c #586F99",
"p. c #547097",
"a. c #577099",
"s. c #59719B",
"d. c #5B739F",
"f. c #5A729D",
"g. c #5C739D",
"h. c #5D769F",
"j. c #59729B",
"k. c #7A7E87",
"l. c #5B6FA1",
"z. c #5873A0",
"x. c #5D73A2",
"c. c #5B76A1",
"v. c #5D75A1",
"b. c #5C77A2",
"n. c #5F77A3",
"m. c #5D75A3",
"M. c #5C77A4",
"N. c #5F77A5",
"B. c #5D77A2",
"V. c #5D79A1",
"C. c #5D78A3",
"Z. c #5C79A3",
"A. c #5E7AA2",
"S. c #5D78A5",
"D. c #5E79A4",
"F. c #5E79A6",
"G. c #5D78A3",
"H. c #5D78A9",
"J. c #5F7BAA",
"K. c #6077A3",
"L. c #6078A6",
"P. c #868B91",
"I. c #898C94",
/* pixels */
"C.C.C.C.C.C.C.C.C.C.C.C.C.C.C.C.S.S.S.C.C.C.b.C.S.C.C.C.C.b.C.C., , , , , , , , , , , , , , , , , , , , , , , , , , , , , , , , ",
"C.C.C.C.C.C.C.C.C.C.C.C.C.C.C.C.C.C.C.C.C.C.b.C.S.C.C.C.C.C.C.C., , , , , , , , , , , , , , , , , , , , , , , , , , , , , , , , ",
"C.C.C.C.C.C.C.C.C.C.C.C.C.C.C.C.C.C.C.C.b.b.C.C.S.C.C.b.5 , j.C., , , , , , , , , , , , , , , , , , , , , , , , , , , , , , , , ",
"C.C.C.C.C.C.C.C.C.C.C.C.C.C.C.C.S.C.b.C.C.C.C.C.C.C.S.r s B 3 f., , , , , , , , , , , , , , , , , , , , , , , , , , , , , , , , ",
"C.C.C.C.C.C.C.C.C.C.C.C.C.C.C.C.C.C.C.C.C.C.C.C.C.C.t B ^ c.Z 4 , , , , , , , , , , , , , , , , , , , , , , , , , , , , , , , , ",
"C.C.C.C.C.C.C.C.C.C.C.C.C.C.C.C.C.C.C.C.C.b.b.b.h.r s [ X.&.x.A ; , , , , , , , , , , , , , , , , , , , , , , , , , , , , , , , ",
"C.C.C.C.C.C.C.C.C.C.C.C.C.C.C.C.C.C.C.C.C.d , , , , ' X.X.&.&.S.2 : : X . , , , , , , , , , , , , , , , , , , , , , , , , , , , ",
"C.C.C.C.C.C.C.C.C.C.C.C.C.C.C.C.C.C.C.C.C.t T f.K 4 , ' X.X.X.3 , B K.C., , , , , , , , , , , , , , , , , , , , , , , , , , , , ",
"C.C.C.C.C.C.C.C.C.C.C.C.C.C.C.C.S.b.C.C.C.d T X.g.S B 3 ^ X.3 B B ) &.L., , , , , , , , , , , , , , , , , , , , , , , , , , , , ",
"C.C.C.C.C.C.C.C.C.C.C.C.C.C.C.C.C.b.C.S.C.d T X.&.X.X.X.X.X.X.X.) X.X.H., , , , , , , , , , , , , , , , , , , , , , , , , , , , ",
"C.C.C.C.C.C.C.C.C.C.C.C.C.C.C.C.S.b.C.C.S.d T X.{ ..X...X.X.*.X.{ ) ..S., , , , , , , , , , , , , , , , , , , , , , , , , , , , ",
"C.C.C.C.C.C.C.C.C.C.C.C.C.C.C.C.b.C.C.S.b.d T ) 4 , s ] X.X.C.Z 2 2 ] b., , , , , , , , , , , , , , , , , , , , , , , , , , , , ",
"C.C.C.C.C.C.C.C.C.C.C.C.C.C.C.C.C.C.C.b.F B 4 , , , , ^ X.&.H.4 , B 2 , B 9 , , , , , , , , , , , , , , , , , , , , , , , , , , ",
"C.C.C.C.C.C.C.C.C.C.C.C.C.C.C.C.S.b.C.L s 4 , , , s 3 ' X.&.b.5 B B B B B B 9 , , , , , , , , , , , , , , , , , , , , , , , , , ",
"C.C.C.C.C.C.C.C.C.C.C.C.C.C.C.C.C.C.C.L 4 , , , , s B B ^ { V B B , B B B B 0 , , , , , , , , , , , , , , , , , , , , , , , , , ",
"C.C.C.C.C.C.C.C.C.C.C.C.C.C.C.C.S.C.C.L 3 , , , , , s B B B B B , 2 B B B B e , , , , , , , , , , , , , , , , , , , , , , , , , ",
"C.C.C.C.C.C.C.C.C.C.C.C.C.C.C.C.C.C.S...S 9 2 , , , , , , 2 , 2 2 B B B C A I , , , , , , , , , , , , , , , , , , , , , , , , , ",
"C.C.C.C.C.C.C.C.C.C.C.C.C.C.C.C.C.C.C.G P ' A 5 2 , , , , s B B B B V S ^ j.. , , , , , , , , , , , , , , , , , , , , , , , , , ",
"C.C.C.C.C.C.C.C.C.C.C.C.C.C.C.C.C.C.C.C.d , U ^ A 9 3 3 3 B V S A S [ f.4 # , , , , , , , , , , , , , , , , , , , , , , , , , , ",
"C.C.C.C.C.C.C.C.C.C.C.C.C.C.C.C.C.C.M.C.P , , , U ' ' ) ..^ ^ l.z.f.V s ,   , , , , , , , , , , , , , , , , , , , , , , , , , , ",
"C.C.C.C.C.C.C.C.C.C.C.C.C.C.C.C.C.C.C.C.C.d , , , , , s B B B B B B B s : , , , , , , , , , , , , , , , , , , , , , , , , , , , ",
"C.C.C.C.C.C.C.C.C.C.C.C.C.C.C.C.C.C.C.C.C.t , , , , , , B B B B B B B , : , , , , , , , , , , , , , , , , , , , , , , , , , , , ",
"C.C.C.C.C.C.C.C.C.C.C.C.C.C.C.C.C.C.C.C.b.P , , , , , , s V B B B B B ,   , , , , , , , , , , , , , , , , , , , , , , , , , , , ",
"C.C.C.C.C.C.C.C.C.C.C.C.C.C.C.C.C.C.C.C.C.C.r , , , , , s B B B B B , : , , , , , , , , , , , , , , , , , , , , , , , , , , , , ",
"C.C.C.C.C.C.C.C.C.C.C.C.C.C.C.C.C.C.C.b.C.r.r , , , , , , B B B s s , , : , , , , , , , , , , , , , , , , , , , , , , , , , , , ",
"C.C.C.C.C.C.C.C.C.C.C.C.C.C.C.C.C.C.C.C.y.S B 2 , , , , , s B B s , , B e , , , , , , , , , , , , , , , , , , , , , , , , , , , ",
"C.C.C.C.C.C.C.C.C.C.C.C.C.C.C.C.C.C.M.C.! S V 9 4 3 2 , , , w e 3 4 3 B A F , , , , , , , , , , , , , , , , , , , , , , , , , , ",
"C.C.C.C.C.C.C.C.C.C.C.C.C.C.C.C.C.C.b.C.W L K S V B 5 3 5 3 3 3 B U Y S P   , , , , , , , , , , , , , , , , , , , , , , , , , , ",
"C.C.C.C.C.C.C.C.C.C.C.C.C.C.C.C.C.C.C.C.C.W L U s S S S S S T T T w.w.I   , , , , , , , , , , , , , , , , , , , , , , , , , , , ",
"C.C.C.C.C.C.C.C.C.C.C.C.C.C.C.C.C.C.C.C.C.C.W D , L P P P P >.q.q.3     , , , , , , , , , , , , , , , , , , , , , , , , , , , , ",
"C.C.C.C.C.C.C.C.C.C.C.C.C.C.C.C.C.C.C.b.C.C.S.C.W 5 , , , , , 9 ,   , , , , , , , , , , , , , , , , , , , , , , , , , , , , , , ",
"C.C.C.C.C.C.C.C.C.C.C.C.C.C.C.C.C.C.C.M.b.C.C.C.C.Z 4 , , , 7 B , , , , , , , , , , , , , , , , , , , , , , , , , , , , , , , , ",
", , , , , , , , , , , , , , , , , , , , , , , , , 6 4 , , 5 B B , h.C.C.C.C.S.b.C.C.C.C.C.C.C.C.C.C.b.C.C.C.C.C.C.C.C.C.C.C.C.C.",
", , , , , , , , , , , , , , , , , , , , , , , , , : 2 , , B B B , h.C.C.C.C.C.C.C.C.C.C.C.C.S.S.C.r.1.S.C.b.C.C.C.C.C.C.C.C.C.C.",
", , , , , , , , , , , , , , , , , , , , , , , , X . , , , B B 1.1.2.2.1.2.2.1.2.1.1.1.1.1.1.1.1.1.1.a 1.C.C.C.C.C.C.C.C.C.C.C.C.",
", , , , , , , , , , , , , , , , , , , , , , , , 2 4 , , , B 1.1.# + + + + + + + + + + O + + + + o # f u 1.C.C.C.C.C.C.C.C.C.C.C.",
", , , , , , , , , , , , , , , , , , , , , , , , : 1.1.1.1.2.:.<.;.,.P.P.P.P.P.I.P.I.I.P.I.I.P.P.P.P.k.y 1.C.C.S.C.C.C.C.C.C.C.C.",
", , , , , , , , , , , , , , , , , , , , , , 2.1.1.h + # + + i g 1 y g g g g g g g g g g g g g g f f f y 1.S.C.C.C.C.C.C.C.C.C.C.",
", , , , , , , , , , , , , , , , , , , , , 1.a + + 5.0.9.9.8.x p 1 + + + + # + O + + + + # # + + + + a 1.C.C.C.C.C.C.C.C.C.C.C.C.",
", , , , , , , , , , , , , , , , , , , , 1.y 7.n v b b v v v c m -.-.-.-.-.N 0.8.8.8.4.3.0.M J 1.2.1.1.C.S.C.S.C.C.C.C.C.C.C.C.C.",
", , , , , , , , , , , , , , , , , , , , 1.y 6.c z l z z x x z & + + + + + % * * k j * k - = J 1.C.C.C.C.C.C.C.C.C.C.C.C.C.C.C.C.",
", , , , , , , , , , , , , , , , , , , , 1.y 5.c z z x z $ + . + 1.1.1.1.1.1.# + + + + + # =.1.C.C.C.C.C.C.C.C.C.C.C.C.C.C.C.C.C.",
", , , , , , , , , , , , , , , , , , , , 1.y 6.c x @ + + 2.1.1.1.1.1.1.0 ' 1.1.1.1.1.1.2.1.1.C.S.C.C.C.C.C.C.C.C.C.C.C.C.C.C.C.C.",
", , , , , , , , , , , , , , , , , , , , 1.y 6.c @ 2.2.2.H B B B 2.1.B B , b.C.b.C.C.C.C.S.S.C.C.C.C.C.C.C.C.C.C.C.C.C.C.C.C.C.C.",
", , , , , , , , , , , , , , , , , , , , 1.y + + 1.q , , B V B B B B B B , b.C.C.C.C.C.C.C.C.C.C.C.C.C.C.C.C.C.C.C.C.C.C.C.C.C.C.",
", , , , , , , , , , , , , , , , , , , , X 2.1.1.5 2 , , B V B V B B B B 0 E C.C.b.C.C.S.C.C.C.C.C.C.C.C.C.C.C.C.C.C.C.C.C.C.C.C.",
", , , , , , , , , , , , , , , , , , , , : 4 , , , , , w B V B B V B B B B , b.C.C.C.b.C.C.C.C.C.C.C.C.C.C.C.C.C.C.C.C.C.C.C.C.C.",
", , , , , , , , , , , , , , , , , , X : : , , , , , , B B V B B B B B B B , F W C.C.C.b.C.C.C.C.C.C.C.C.C.C.C.C.C.C.C.C.C.C.C.C.",
", , , , , , , , , , , , , , , , , , > B 3 , , , , , , B B B B B B B B B 3 2 0 B C.C.C.C.C.C.C.b.C.C.C.C.C.C.C.C.C.C.C.C.C.C.C.C.",
", , , , , , , , , , , , , , , , , . : s s e 2 , , , , 3 B B B B B B B 5 , e T 3 L C.C.C.b.C.C.b.C.C.C.C.C.C.C.C.C.C.C.C.C.C.C.C.",
", , , , , , , , , , , , , , , ,   2 4 4 3 Y B s s 4 , , 3 3 3 3 3 4 R e.e.R 0 , e F C.C.C.C.b.b.C.C.C.C.C.C.C.C.C.C.C.C.C.C.C.C.",
", , , , , , , , , , , , , , ,   2 B 4 , , 9 3 4 U B s e s s e U I e.a.H.Z 0 , , B s D C.S.S.C.C.C.C.C.C.C.C.C.C.C.C.C.C.C.C.C.C.",
", , , , , , , , , , , , , , ,   L S B e 2 , , , 9 4 4 4 4 4 2 9 9 B d d , , s e B T s C.C.C.C.C.C.C.C.C.C.C.C.C.C.C.C.C.C.C.C.C.",
", , , , , , , , , , , , , , ,   5 U ' A s s e 2 , , , , , , , 2 , < , s s s B ' t.A B C.C.C.C.C.C.C.C.C.C.C.C.C.C.C.C.C.C.C.C.C.",
", , , , , , , , , , , , , , ,   , 5 9 P ' ^ V s s s s s s s s s s s s B ' y.y.f.L B B C.C.C.C.C.C.C.C.C.C.C.C.C.C.C.C.C.C.C.C.C.",
", , , , , , , , , , , , , , ,   , , , 8 9 8 U R ' ^ ^ ] ^ ' ^ t.y.y.i.y.f.H.L L B V B b.C.C.C.C.C.C.C.C.C.C.C.C.C.C.C.C.C.C.C.C.",
", , , , , , , , , , , , , , ,   , , , , , , 5 5 5 5 5 5 5 5 V S S S S S S L B B B B B C.C.C.C.C.C.C.C.C.C.C.C.C.C.C.C.C.C.C.C.C.",
", , , , , , , , , , , , , , , ; 3 , , , , , , , , , , , , , s B B B B B B B B B B B 4 C.C.C.C.C.C.C.C.C.C.C.C.C.C.C.C.C.C.C.C.C.",
", , , , , , , , , , , , , , , , , 3 , , , , , , , , , , , s B B B B B B B B B B B 2 t.C.C.C.C.C.C.C.C.C.C.C.C.C.C.C.C.C.C.C.C.C.",
", , , , , , , , , , , , , , , , , : 4 , , , , , , , , , , B B B B B B B B B B B 4 p.C.b.C.S.S.C.C.C.C.C.C.C.C.C.C.C.C.C.C.C.C.C.",
", , , , , , , , , , , , , , , , , , , > 4 , , , , , , , , B B B B B B B B B 2 y.j.C.C.C.C.C.C.C.C.C.C.C.C.C.C.C.C.C.C.C.C.C.C.C.",
", , , , , , , , , , , , , , , , , , , , ,   , , , , , , , , s B B B B B 2 r.r.C.S.S.C.M.C.C.C.C.C.C.C.C.C.C.C.C.C.C.C.C.C.C.C.C.",
", , , , , , , , , , , , , , , , , , , , , , , , , , , , , , , , j.j.j.a.j.b.C.C.C.C.C.C.C.C.C.C.C.C.C.C.C.C.C.C.C.C.C.C.C.C.C.C.",
", , , , , , , , , , , , , , , , , , , , , , , , , , , , , , , , C.C.C.C.C.C.C.C.S.C.C.C.b.C.C.C.C.C.C.C.C.C.C.C.C.C.C.C.C.C.C.C."
};
