/* XPM */
static char *fe7601a6cc9344b3f50e91a2840f63aecJhSOyvwenfMzb6U[] = {
/* columns rows colors chars-per-pixel */
"64 64 142 2 ",
"   c #34393E",
".  c #2E3B41",
"X  c #333742",
"o  c #333942",
"O  c #393F46",
"+  c #32374A",
"@  c #363C4B",
"#  c #393F4B",
"$  c #383D50",
"%  c #374047",
"&  c #3B4045",
"*  c #3B414E",
"=  c #3C4351",
"-  c #41454E",
";  c #414550",
":  c #424953",
">  c #454D5A",
",  c #494F5B",
"<  c #4D525B",
"1  c #50545F",
"2  c #4E5465",
"3  c #515666",
"4  c #535C66",
"5  c #515669",
"6  c #535A6A",
"7  c #595F6E",
"8  c #5A5F72",
"9  c #5D616A",
"0  c #5A6070",
"q  c #69727B",
"w  c #878DA3",
"e  c #898FA5",
"r  c #8A90A6",
"t  c #8D93AD",
"y  c #9094AE",
"u  c #9399AF",
"i  c #8D93B1",
"p  c #9095B2",
"a  c #9499B4",
"s  c #969DBA",
"d  c #989DBA",
"f  c #9CA2B6",
"g  c #9BA2BE",
"h  c #A5ABBD",
"j  c #9EA3C0",
"k  c #A4ABC0",
"l  c #A8AEC4",
"z  c #ACB3C6",
"x  c #ADB3CB",
"c  c #B0B3C4",
"v  c #B1B6CC",
"b  c #B3B9CE",
"n  c #B8BFCB",
"m  c #AEB4D1",
"M  c #AFB9D4",
"N  c #B2B7D1",
"B  c #B4B8D3",
"V  c #B5B9D2",
"C  c #B4BAD2",
"Z  c #B4B8D1",
"A  c #B1B8D4",
"S  c #B3B8D5",
"D  c #B2B9D5",
"F  c #B3BAD4",
"G  c #B3B8D6",
"H  c #B7B8D4",
"J  c #B4BAD4",
"K  c #B3B9D1",
"L  c #B8BFD1",
"P  c #B8BFD2",
"I  c #B8BED2",
"U  c #BDC4CD",
"Y  c #BAC0D2",
"T  c #C2C6CF",
"R  c #C4C8D3",
"E  c #C3C9D7",
"W  c #C6CDD7",
"Q  c #C6CDD6",
"!  c #C8CCD5",
"~  c #C6CCD9",
"^  c #CBCFDA",
"/  c #CCD0DB",
"(  c #CCD4E1",
")  c #CFD7E2",
"_  c #CDD3E1",
"`  c #D1D4E3",
"'  c #D4DBE3",
"]  c #D1D9E4",
"[  c #D3DBE6",
"{  c #D7D9E5",
"}  c #D4DBE5",
"|  c #D5DAE6",
" . c #D3DCE5",
".. c #D3DAE5",
"X. c #D8DFE7",
"o. c #D8DFE7",
"O. c #D2D9E9",
"+. c #D3D9E9",
"@. c #D3D8EB",
"#. c #D3DAEA",
"$. c #D5D8E9",
"%. c #D5D8EB",
"&. c #D4DAE9",
"*. c #D7DDEB",
"=. c #D4DBEE",
"-. c #D6DCEC",
";. c #D7DDED",
":. c #D7DCEF",
">. c #D7DEEE",
",. c #D6DFEE",
"<. c #D7DEE9",
"1. c #D8DFE9",
"2. c #DBDFE8",
"3. c #DADEE9",
"4. c #D8DEEA",
"5. c #D9DFEB",
"6. c #DADEEA",
"7. c #DBDFEA",
"8. c #DBDFEB",
"9. c #DCDEEA",
"0. c #DCDEEB",
"q. c #DEDEEA",
"w. c #D8DEEC",
"e. c #D9DFED",
"r. c #DADDEE",
"t. c #D8DEEE",
"y. c #D8DFEF",
"u. c #DDDFEC",
"i. c #DADFED",
"p. c #D7DEF0",
"a. c #D8DDF0",
"s. c #DADDF0",
"d. c #D9DEF1",
"f. c #D7E1EE",
"g. c #D9E0E8",
"h. c #DAE1E9",
"j. c #D9E0EA",
"k. c #D8E0EB",
"l. c #DAE1EB",
"z. c #DCE0EC",
"x. c #D9E0EA",
"c. c #DAE0F0",
/* pixels */
"  o 9.9.4.9.4.4.4.4.4.4.4.4.9.9.4.4.4.4.4.4.4.4.4.4.9.9.O o o X o X | 9.4.z.4.4.4.4.4.4.4.4.4.4.4.4.9.9.4.4.4.4.4.4.4.u.4 o o X ",
"< 1 | $.O.O.$.O.O.O.O.O.O.O.O.$.O.O.O.O.O.O.O.O.O.O.O.$.1 < o o < < ` $.O.O.O.O.O.O.O.O.O.O.O.O.O.O.O.$.O.O.O.O.$.O.$.O.q < O o ",
"g.4.b b b K b K b b b b b b b b b b b b b b b b b b b b 4.4.o o ' t.b b C b b b b b b b b b b b b b b b b b b b b b b b [ g.9 o ",
"| O.K K K K K K K K K K K K K K K K K K K K K K K K C K [  .o o ( O.C K K D K K K K K K K K K K K K K K K K K K K K H K ( | 7 o ",
"H C K K K K C K K K K K K K K K C C K K K K K K b b K K K b @ o b K C K K K K K C C K K K K K K K K K K C C K K K C K K D b 3 o ",
"Z C C K K K K K K K K K K K K K C C K K K K K K K K K K D b @ X b K K K K K K K C C K K K K K K K K K K C C K K K K C K K b 5 o ",
"Z C K K K K K K K K K K K K K K K K K K K K K K K K K K K b @ o b K K K K K K b K K K K K K K K K K K K K K K K K K K C K b 6 o ",
"Z C K K b K K K K K K K K K K K K K K K K K K K K K K K K b @ o b K K K K K K b K K K K K K K K K K K K K K K K K K K K D b 3 o ",
"C C K K C K K K K K K K K K K K K K K K K K K K K C K K K b o o b K K K K K K K K K K K K K K K K K K K K K K K K b K K K b 6 X ",
"C C K K K K K K K K K K K K K K K C K K K K K H C K K K K b @ o b K K K K K K K K K K K K K b K K K K K K K K K K K K K K K 4 o ",
"Z C K K K K K K K K K H K K K K K K K K K K K K K K K K K b @ o b K K K K K b C K K C K K K C K K K K K K K K K K b K K K b 6 o ",
"x z K K N N N N K K K K N N N K N N K K K K N N K K K K x z o o l x C C N N N N K K K K N N N K b N K K C b N N K C b K x z 2 o ",
"X @ b Z i i i i K K K K i i i i i t D K K D t i K H K K o   o   o o z C i i i i N K K K p i i i i t m K K K a i x K D K 2 o o o ",
"o o c c w w e e z z z z e e e e e e z z z z e e z z z z o o o o o o z z r e w e z z z z r e e w e r z z z z t e k z z z < o o o ",
"  o o o o o o o o o o o o o o o o o o o o o o o o o o o o o o o   o o o o o o o o o X o o o o o + + o o o o o o o o o o o o o o ",
"O O O # O O O O O O & O O O   o o       & O O O O O O O O O O O O O O # O O O O O O O O O O o o o   o   O O O O O O O O % O O O ",
"4.4.g.g.4.9.4.4.4.4.4.4.4.4.o o o o o o 4.4.4.4.g.4.4.9.4.4.4.4.4.4.4.4.4.4.4.4.4.4.4.4.4.4.= o o o o o R 4.4.4.4.4.4.4.4.4.4.9.",
"t.t.;.;.t.t.t.;.;.t.t.t.t.*.@ @ o o o o ;.;.t.t.t.t.t.t.t.t.t.t.t.t.t.t.t.t.t.t.t.;.t.t.t.t.: o   o # o E t.t.t.t.d.t.t.p.;.t.d.",
"b b b b b b b b b b b b C b t.g.o o g.g.b b b b b b b b b b b b b b b b b b b b b b b b b b ;.g.: o Q g.I b b b b b b b b b b b ",
"C C K K K K K K K K K K C b t.4.o o X.X.K K K K K K K K K K K b K K K K K K K K K K K K C C =.t.: o ! 4.I K K K K K K K K K K K ",
"C C K K K K K K K K K C K K K K   o b K K K K C C K K K K K K K K K K K K K K K C K K C K K K K - o h K K K K K K K K K K K Z C ",
"C C K K K K K K K K K K K K K K   X b K K K K K K K b K K K K K K K K K K K K K K K K K C K K K - o h K K K K K K K K K K K Z C ",
"C C K K K K K K K K K K K K K K   o b K K K K K K K K K K K K K K K K K K K K K K K K K K K K K - o h K K K K K K K K K K K C C ",
"C C K K K K K K K K C K K K K K   o b K K K K K K K K K K C K K K K K K K K K K K K K K K K K K - o h K K K K K K K K K K K C C ",
"C C K K K K K K K K K K K K K K   X b H K K K K K K K K K K K K K K C K C K K K C K K K K K K K - o h K K K K K K K K K b K C C ",
"C C K K K K K C K K K K K K K K   o b K K b K K K K K K K K K K K K K K K K K K K C K K K K K b ; o h K K K K K K K K K K K C C ",
"b C K K K K K K C C K K K C C K   o b K K K K K K K K K K K K K K K K K K K K K K K K C K C K K - o h K K C K H K K K K K K C C ",
"Z C K N K K K K b K K K K K K K   o b K K K K K C C K K K K K K K K K K K K K K K K K K K K K K - o h K K K K K K K K K K K C C ",
"b D i i K A t i i i D K C b o o o o o o K K K K t i D D K K K K K D i t N D i i i i N D C b = o o o o o k K D K a t x D K K K C ",
"b b t t b b t t t t b b b b o o o o o o b b b b t t b b b b b b b b t t b C t t t t b b b b =   o o o o h b b b u t z b b b b b ",
"o o o o o o o o o o o o o o o o o o o o o o o o o o o o o o o o o o o + o o o + + o o o o o o o   o o o o o o o o o o o o o o o ",
"o           o o o       o o o   o o o o o o o o o o       o           o       o o o     o o o   o o o o o o o o         o o   o ",
"4.4.g.g.4.4.4.4.4.4.9.9.9.4.4.4.4.4.4.4.o o o o o o *.g.4.4.4.z.4.4.4.4.4.4.4.4.4.4.9.9.9.4.4.4.g.4.4.z.> o o o o o n g.g.4.g.9.",
"t.t.f.f.t.t.t.t.t.t.t.t.t.t.t.t.t.t.t.t.o o o o o o t.t.t.t.t.d.t.t.t.t.t.t.t.t.t.t.t.t.t.t.t.t.t.c.t.t., o o o   o n u.t.t.t.t.",
"b b b b b b b b b b b b b b b b b b b b X.g.o o *.t.b b b b b b b b b b b b b b b b b b b b b b b b b b [ X.< o U 4.Y b b b b b ",
"C C K K K K K K K K C C K K K K K K K K g.g.o o *.t.b C K K C K C C C C K K K K K K C C K K K K K K K K [ g.< o U t.Y C K K K C ",
"C C C K K K K K K K K K K C K K K K K K K b o   K K K K K K K K C C K K K K K K K K K K K C K K K K K C K b > o f K K K K K N C ",
"C C C K K K K K K K K K C C K K K K K K K b o o b K K K K K K K C C K K K K K K K K K K C C K K K K K K K b > o f K K K K K C C ",
"C C K K K K K K K K K K K K K K K K K K K b o o b K K K K K K K K K K K K K K K K K K K K K K K K K K K D b > o f K K K K K C C ",
"C C K K K K K K K K K K K K K K K K b K K b o o K K C K K K K K K K K K K K K K K K K K K K K K K C K K D b > o f K K K K K C C ",
"C C K K K K K K K K K K K K K K K K K K K b o X K K K K K K C K K K K K K K K K K K C K K K K K K K K K K b > o f K K K K K C C ",
"C C K K K K K K K K K K K K K K K K K K K b o o K K K K K K K K K K K K K K K K K K K K K K K K K D K K K K >   f K K K K K C C ",
"C C K K C K K K C K K K K K K C K K K K K b o o b K K K K K K K K K K K K K C K b b K K K K K K K K K K K b > o f K K K K K C C ",
"C C K K K K K K K b K K K K b K K K K K K b o o K K K K K K K K K K K K K K K K K K K K K K K K K K K K K b > o f K K K K K C C ",
"Z C K K i i i i i i D K K D i i K K K K # % o o % # v C p i i i K K K K i i i i i i N D K D a i m K K K , # o o # # f C s i i p ",
"b b b b t t t t t t b b b b t t b b b b o o o o o o v b t t t t b b b b t t t t t t b b b b y t z b b b : o o o o o f b a r t t ",
"* = * * # # # # $ # * * * * # $ * * * = o o o o o o * * # # # # * * * * # # # # $ # = * * * # $ * * * * o o o o o o * * # # # # ",
"o o o . o o o o o o         o o o o X o o o o o   o o o o o o o o o o o o o o o o o         o o o o o X o o o       o o o o o o ",
"/ / / / / ^ o o X o o o / / / / / / / / / / / / / / / / / / / / / / / / / / % o o o o o T / / / / / / / / / / / / / / / / / / ^ ",
"t.t.f.f.t.t.o   o o o o t.t.t.t.t.t.t.t.t.t.t.t.t.t.t.t.t.t.t.t.t.t.t.t.t.t.% o o o o o ( t.t.4.t.t.t.t.t.t.t.t.t.t.t.t.f.t.t.u.",
"I I L L I I ~ Q o o Q Q L L L L L L L L L L L L L L L n L n L L L I L L I I ~ Q % o U Q Y L L n L L L L L L L L L L L L L L I I ",
"C C K K C b t.*.o o g.g.K K K K K K K K K K K K K K K K K K K K K K K K C b ;.g.% o / g.C K K K K K K K K K K K K K K K K K K C ",
"C C K K K K P L o o I P K K K K K K K K K K K K K b K b K K K K K K C K K K P P # o v P K C K K K K K K K K K K K K K K K K C C ",
"C C K K K K K K o o b K K C K K K K K K K K K K K K b K K K K K K K K K K K K K & o z K K b K K K K K K K K K K K K K K K K C C ",
"C C K K C K K K o o b K K K K K K K K K K K K K K K K K K K K K K C K K K C K K # o z K K C K C K K K K K K K K K K K K K K C C ",
"C C K K K K K K o @ b K K K K K K K K K K K K K K K K K K K K K K K K K K K K K # o z K K K K K K K K K K K K K K K K K K K C C ",
"C C K K K K K K o o b K K K K C K K K K K K C K K K K K K K K K K K K K K K K C # o z K K K K K C K b K K K K C K K K K b K C C ",
"C C K K K K K K X + b K K K K K K K K K K K K K K K K K K K K K K K K K K K K K & o z K K K K C K K K C K K K K K K K K K K C N ",
"Z Z H K K D K K o o b K C C H C b K K K K K K K K K K K K K K K K K K K K C K C O o z K C K C K K K K K K K K K C C K K K K C C ",
"C b K K K K K K o o b K K K K K K K K K K K K K K K K K K K K K K K K K K C K K # o z C K K K K K K K K K K K K K K K K K K C C ",
"s s D D K b 6 6 o o 4 6 K D D M s s D D D K K K K D s s K D d s s s D K K b 8 6 o o 4 6 x D K K g s m D K K K K D D g s x D j d ",
"t t K K b b o o o o o   b b b b t t K H b b C C K K t t K K t t t t K K C b # o o o o o z b b b p t x K b b b b b K a t x K a y ",
"2 2 7 7 7 7 o o o o o o 7 7 7 7 2 2 7 7 7 7 7 0 7 7 2 2 7 7 2 2 2 2 7 7 8 7 o o o o o o 6 7 7 7 2 2 7 7 7 7 7 8 7 8 5 2 7 7 3 3 ",
"  o o   o X     o o o o o o o o o X o o o o o o   o o o   o o o o o o   o o     o o o o o o o o o o o   o o o o     o o o o   o "
};
