/* XPM */
static char *bba1b7bad6ac4299808d5d4bc264ff11ADlbI3tVPQiy6KlM[] = {
/* columns rows colors chars-per-pixel */
"64 64 151 2 ",
"   c #170F26",
".  c #151225",
"X  c #191523",
"o  c #1C1826",
"O  c #161328",
"+  c #241D25",
"@  c #281E27",
"#  c #251D28",
"$  c #2C2125",
"%  c #26202A",
"&  c #292229",
"*  c #342A2D",
"=  c #3C2F2B",
"-  c #342A31",
";  c #40332D",
":  c #48352E",
">  c #433836",
",  c #4B3D34",
"<  c #493B38",
"1  c #5B4736",
"2  c #634E3C",
"3  c #634E41",
"4  c #635143",
"5  c #6B5547",
"6  c #755941",
"7  c #5B6479",
"8  c #706B6D",
"9  c #656975",
"0  c #6D6D75",
"q  c #636A7B",
"w  c #787677",
"e  c #75757D",
"r  c #906C4A",
"t  c #9C7247",
"y  c #96724C",
"u  c #9D744A",
"i  c #8F7155",
"p  c #89735C",
"a  c #957353",
"s  c #987756",
"d  c #A2764B",
"f  c #A3794D",
"g  c #A67D51",
"h  c #837163",
"j  c #86786F",
"k  c #8B7A68",
"l  c #847B74",
"z  c #A78154",
"x  c #AB8155",
"c  c #AB855A",
"v  c #AC885E",
"b  c #B08759",
"n  c #B18B5E",
"m  c #8D837A",
"M  c #AF8A60",
"N  c #B58E63",
"B  c #B69063",
"V  c #B99062",
"C  c #B6946D",
"Z  c #B9976B",
"A  c #BD9A6B",
"S  c #BD9B73",
"D  c #BA9C78",
"F  c #BDA076",
"G  c #BFA17B",
"H  c #C39E67",
"J  c #C39E6C",
"K  c #C4A06E",
"L  c #C5A374",
"P  c #C8A675",
"I  c #C3A47C",
"U  c #C8A678",
"Y  c #CAA97A",
"T  c #586985",
"R  c #596A8C",
"E  c #586E97",
"W  c #596F98",
"Q  c #587094",
"!  c #5B739D",
"~  c #646E83",
"^  c #5D77A2",
"/  c #5D78A3",
"(  c #6078A4",
")  c #C5A681",
"_  c #C6A983",
"`  c #CAAD85",
"'  c #CFB084",
"]  c #CDB38D",
"[  c #D2B387",
"{  c #D2B58B",
"}  c #D8B78C",
"|  c #D6B98F",
" . c #CFB590",
".. c #D0B691",
"X. c #D5BB96",
"o. c #D9C097",
"O. c #DCC29B",
"+. c #DAC3A1",
"@. c #E2CAA4",
"#. c #E6D2AE",
"$. c #E9D6AE",
"%. c #E7D6B3",
"&. c #EAD6B4",
"*. c #EBD8B5",
"=. c #E6D3BA",
"-. c #ECD7B8",
";. c #EEDEBC",
":. c #EEDDBF",
">. c #EEDCBC",
",. c #EDDBBA",
"<. c #F0DEBA",
"1. c #F0DDBC",
"2. c #F1DEBD",
"3. c #F0DDBD",
"4. c #F0E0BE",
"5. c #EFDEC0",
"6. c #EFDEC2",
"7. c #EFDEC1",
"8. c #F0E1C2",
"9. c #F1E2C5",
"0. c #F0E1C4",
"q. c #F1E1C4",
"w. c #F2E2C9",
"e. c #F4E4CA",
"r. c #F0E4CC",
"t. c #F3E3CA",
"y. c #F6E7D0",
"u. c #F6E7D1",
"i. c #F5E9D1",
"p. c #F4E8D2",
"a. c #F6EAD4",
"s. c #F7EAD4",
"d. c #F9EDD7",
"f. c #F9ECD6",
"g. c #F6EDDC",
"h. c #F9ECD9",
"j. c #FAEFDD",
"k. c #FAEDDA",
"l. c #FBF0DC",
"z. c #F8F2E4",
"x. c #FBF4EA",
"c. c #FAF6ED",
"v. c #FBF7EE",
"b. c #FAF5EB",
"n. c #FCF8EF",
"m. c #FCFBF6",
"M. c #FDF8F2",
"N. c #FEFCFD",
"B. c #FFFFFF",
"V. c #FEFEFC",
"C. c #FEFDFC",
/* pixels */
". . . . . . . . . . . . . . . . . . . . . . . . . . . . . . . . / / / / / / / / / / / / / / / / / / / / / / / / / / / / / / / / ",
". . . . . . . . . . . . . . . . . . . . . . . . . . . . . . . . / / / / / / / / / / / / / / / / / / / / / / / / / / / / / / / / ",
". . . . . . . . . . . . . . . . . . . . . . . . . . . . . . . . / / / / / / / / / / / / / / / / / / / / / / / / / / / / / / / / ",
". . . . . . . . . . . . . . . . . . . . . . . . . . . . . . . . / / / / / / / / / / / / / / / / / / / / / / / / / / / / / / / / ",
". . . . . . . . . . . . . . . . . . . . . . . . . . . . . . . . / / / / / / / / / / / / / / / / / / / / / / / / / / / / / / / / ",
". . . . . . . . . . . . . . . . . . . . . . . . . . . . . . . . / / / / / / / / / / / / / / / / / / / / / / / / / / / / / / / / ",
". . . . . . . . . . . . . . . . . . . . . . . . . . . . . . . . / / / / / / / / / / / / / / / / / / / / / / / / / / / / / / / / ",
". . . . . . . . . . . . . . . . . . . . . . . . . . . . . . . . / / / / / / / / / / / / / / / / / / / / / / / / / / / / / / / / ",
". . . . . . . . . . . . . . . . . . . . . . . . . . . . . . . . / / / / / / / / / / / / / / / / / / / / / / / / / / / / / / / / ",
". . . . . . . . . . . . . . . . . . . . . . . . . . . . . . . . / ^ / / / / / / / / / / / / / / / / / / / / / / / / / / / / / / ",
". . . . . . . . . . . . . . . . . . . . . . . . . . . . . . . . / / ^ / / / / / / / / / / / / / / / / / / / / / / / / / / / / / ",
". . . . . . . . . . . . . . . . . . . . . . . . . . . $ $ $ $ $ 7 7 7 7 7 ^ / ^ / / / / / / / / / / / / / / / / / / / / / / / / ",
". . . . . . . . . . . . . . . . . . . . . . . . . . > n n N _ ) I ) I I ) e ^ / / / / / / / / / / / / / / / / / / / / / / / / / ",
". . . . . . . . . . . . . . . . . . . . . . . . . ; V U P o.,.-.-.-.,.6.&.] w / / / / / / / / / / / / / / / / / / / / / / / / / ",
". . . . . . . . . . . . . . . . . . . . . . . . : B L P O.>.,.-.-.w.p.b.t.-.] 8 / / / / / / / / / / / / / / / / / / / / / / / / ",
". . . . . . . . . . . . . . . . . . . . . . . . t P P o.-.,.2.,.,.j.v.C.z.:.&.f / / / / / / / / / / / / / / / / / / / / / / / / ",
". . . . . . . . . . . . . . . . . . . . . . . + x L P &.&.,.2.,.,.p.m.C.n.w.&.S 7 / / / / / / / / / / / / / / / / / / / / / / / ",
". . . . . . . . . . . . . . . . . . . . . . . t L P L &.&.,.<.,.,.,.i.v.g.>.&.-.f / / / / / / / / / / / / / / / / / / / / / / / ",
". . . . . . . . . . . . . . . . . . . . . . . u L P P &.&.,.4.,.-.&.>.e.,.-.-.-.d / / / / / / / / / / / / / / / / / / / / / / / ",
". . . . . . . . . . . . . . . . . . . . . . . u P L P -.&.-.,.,.-.&.,.>.-.&.&.-.f / / ^ / / / / / / / / / / / / / / / / / / / / ",
". . . . . . . . . . . . . . . . . . . . . . . t O.P P [ &.&.-.,.&.,.&.-.-.&.-.-.f / / / / / / / / / / / / / / / / / / / / / / / ",
". . . . . . . . . . . . . . . . . . . . . . . t &.U P P &.&.-.&.&.&.-.-.-.-.&.-.d / / / / / / / / / / / / / / / / / / / / / / / ",
". . . . . . . . . . . . . . . . . . . . . . . u &.P P P P &.&.&.&.-.,.,.,.,.-.-.f / / / / / / / / / / / / / / / / / / / / / / / ",
". . . . . . . . . . . . . . . . . . . . . . . . t &.U L P Y &.-.&.,.,.<.>.,.U f ^ / / ^ ^ / ^ / / / / / / / / / / / / / / / / / ",
". . . . . . . . . . . . . . . . . . . . . . . . t *.&.L P U U *.-.,.,.2.,.' U d / / / / / / / / / / / / / / / / / / / / / / / / ",
". . . . . . . . . . . . . . . . . . . . . . . . . u &.&.P P P U U U U Y U U d ^ / / / / / / / / / / / / / / / / / / / / / / / / ",
". . . . . . . . . . . . . . . . . . . . . . . . . . u &.&.&.U U U Y U U c u ! / / / ^ / / / / ^ / / / / / / / / / / / / / / / / ",
". . . . . . . . . . . . . . . . . . . . . . . . . $ $ u d ] { { ] ] _ t d q 7 W / / / ^ / / / / / / / / / / / / / / / / / / / / ",
". . . . . . . . . . . . . . . . . . . . . . . . 3 n n n n v n F I I I I I I I l E / / / ^ / / / / / / / / / / / / / / / / / / / ",
". . . . . . . . . . . . . . . . . . . . . . . 5 I P P L L [ [ -.&.&.-.,.8.>.,.+.m W / / / / / / / / / / / / / / / / / / / / / / ",
". . . . . . . . . . . . . . . . . . . . . . X b o.&.L P P -.,.&.&.&.,.9.j.w.e.9.S T / / / / / / / / / / / / / / / / / / / / / / ",
". . . . . . . . . . . . . . . . . . . . . . X v [ L P #.a.d.h.h.h.d.C.C.C.v.>.&.D R / / / / / / / / / / / / / / / / / / / / / / ",
"/ / / / / / / / / / / / / / / / / / / / / / / R y Z L L P #.#.#.#.#.#.,.p.:.C y @ . . . . . . . . . . . . . . . . . . . . . . . ",
"/ / / / / / / / / / / / / / / / / / / / / / / / / h s f u t u u u d d u t r + . . . . . . . . . . . . . . . . . . . . . . . . . ",
"/ / / / / / / / / / / / / / / / / / / / / / / / / / / a g g g g z v v c 3 . . . . . . . . . . . . . . . . . . . . . . . . . . . ",
"/ / / / / / / / / / / / / / / / / / / / / / / / ^ / / a L L L ' [ &.-.O.3 . . . . . . . . . . . . . . . . . . . . . . . . . . . ",
"/ / / / / / / / / / / / / / / / / / / ^ / / / / / / / a K L P &.-.&.>.=.2 . . . . . . . . . . . . . . . . . . . . . . . . . . . ",
"/ / / / / / / / / / / / / / / / / / / ^ / / / / / / / y L L L -.&.,.h.=.2 . . . . . . . . . . . . . . . . . . . . . . . . . . . ",
"/ / / / / / / / / / / / / / / / / / / / / / / / / / i L L L P &.&.,.h.y.X.1 . . . . . . . . . . . . . . . . . . . . . . . . . . ",
"/ / / / / / / / / / / / / / / / / / ^ / / / / / ^ / a J L P @.-.&.&.8.y.X.1 . . . . . . . . . . . . . . . . . . . . . . . . . . ",
"/ / / / / / / / / / / / / / / / / / / / / / / / / j A K H L &.-.-.-.>.e.&.` < . . . . . . . . . . . . . . . . . . . . . . . . . ",
"/ / / / / / / / / / / / / / / / / / / / / / / / / p A H H K &.-.&.&.-.w.b..., . . . . . . . . . . . . . . . . . . . . . . . . . ",
"/ / / / / / / / / / / / / / / / ^ / / / / / / R c L L K L $.&.-.-.&.&.6.l.8.%._ * . . . . . . . . . . . . . . . . . . . . . . . ",
"/ / / / / / / / / / / / / / / / / / / / / ^ W z L L L L &.&.-.&.&.&.&.&.&.-.&.w.) + . . . . . . . . . . . . . . . . . . . . . . ",
"/ / / / / / / / / / / / / / / / / / / / / / W g L L -.,.&.-.-.&.&.&.&.&.>.b.v.w.S + . . . . . . . . . . . . . . . . . . . . . . ",
"/ / / / / / / / / / / / / / / / / ^ / / / / Q z L P L L %.f.h.h.f.a.C.C.b.*.-.&.G - . . . . . . . . . . . . . . . . . . . . . . ",
"/ / / / / / / / / / / / / / / / / / / / / ! f L L L L L P L L P P U &.&.&.-.-.&.-.Z % . . . . . . . . . . . . . . . . . . . . . ",
"/ / / / / / / / / / / / / / / / / / ^ / / ! g L L L L L P P P U &.&.&.&.>.y.&.&.-.S & . . . . . . . . . . . . . . . . . . . . . ",
"/ / / / / / / / / / / / / / / / / / / / ! z L L L L L &.&.&.&.&.&.&.&.&.2.k.e.&.&.&.Z # . . . . . . . . . . . . . . . . . . . . ",
"/ / / / / / / / / / / / / / / / / / / ! g L L L L L P &.&.&.&.&.&.&.&.-.>.h.y.-.&.&.&.C o . . . . . . . . . . . . . . . . . . . ",
"/ / / / / / / / / / / / / / / / / / / f L L L L L L &.&.&.&.&.&.&.&.-.-.6.k.h.t.&.&.#.p.M . . . . . . . . . . . . . . . . . . . ",
"/ / / / / / / / / / / / / / / / / / / f U -.&.&.&.&.&.-.&.&.&.&.-.-.-.-.-.-.&.-.-.&.p.h.M . . . . . . . . . . . . . . . . . . . ",
"/ / / / / / / / / / / / / / / / / / ^ f [ L Y a.s.f.h.&.-.&.&.&.&.&.-.-.,.9.x.C.C.x.>.&.c . . . . . . . . . . . . . . . . . . . ",
"/ / / / / / / / / / / / / / / / / / ( f } L L L L P &.h.h.d.h.h.h.h.C.C.C.C.C.M.9.&.&.&.c . . . . . . . . . . . . . . . . . . . ",
"/ / / / / / / / / / / / / / / / / / / f | L L L L L L -.-.%.-.&.&.&.-.-.-.6.h.j.w.&.&.&.c . . . . . . . . . . . . . . . . . . . ",
"/ / / / / / / / / / / / / / / / / / / f | L L L L L L -.&.&.&.&.&.&.-.-.-.6.h.d.w.&.&.&.v . . . . . . . . . . . . . . . . . . . ",
"/ / / / / / / / / / / / / / / / / / / 8 S ' L L L L P &.&.&.&.&.&.&.&.&.-.6.j.k.w.&.&. .2 . . . . . . . . . . . . . . . . . . . ",
"/ / / / / / / / / / / / / / / / / / / / 0 I N N J L L o.&.&.&.&.&.&.&.&.&.,.e.=.] ) _ 4 . . . . . . . . . . . . . . . . . . . . ",
"/ / / / / / / / / / / / / / / / ^ / / / / q 9 9 k n n N ) I I I I I I I I I I C 6 = = . . . . . . . . . . . . . . . . . . . . . ",
"/ / / / / / / / / / / / / / / / / / / / / ^ / / E ~ ~ ~ ~ 7 7 7 @ + * - - * - - o . . . . . . . . . . . . . . . . . . . . . . . ",
"/ / / / / / / / / / / / / / / / / / / / / / / ^ / / / / / / / / . . . . . . . . . . . . . . .   . . . . . . . . . . . . . . . . ",
"/ / / / / / / / / / / / / / / / / / / / / / / / / / / / / / / / . . . . . . . . . . . . . . . . . . . . . . . . . . . . . . . . ",
"/ / / / / / / / / / / / / / / / / / / / / / / ( / / / / / / / / . . . . . . . . . . . . . . . . . . . . . . . . . . . . . . . . ",
"/ / / / / / / / / / / / / / / / / / / / / / / / / ^ / ^ / / ^ / . . . . . . . . . . . . . . . . . . . . . . . . . . . . . . . . "
};
