/* XPM */
static char *ac38321440504467e2937b264dbe0c7djUDGSiLxy1JB0Uub[] = {
/* columns rows colors chars-per-pixel */
"64 64 128 2 ",
"   c #0C0A17",
".  c #0E0C1D",
"X  c #110E1D",
"o  c #13101E",
"O  c #0F0C22",
"+  c #120E23",
"@  c #151225",
"#  c #191626",
"$  c #161429",
"%  c #19162C",
"&  c #17182C",
"*  c #1A192D",
"=  c #1B1730",
"-  c #171A31",
";  c #1C1B32",
":  c #1D1F38",
">  c #211F36",
",  c #221F3B",
"<  c #1D2236",
"1  c #1E223D",
"2  c #22202E",
"3  c #22223D",
"4  c #22293D",
"5  c #1E2448",
"6  c #252442",
"7  c #282746",
"8  c #242944",
"9  c #282947",
"0  c #262A4A",
"q  c #292D4D",
"w  c #28344C",
"e  c #2A2F51",
"r  c #2C3353",
"t  c #2F3955",
"y  c #2F375B",
"u  c #2E3A5A",
"i  c #303754",
"p  c #333F57",
"a  c #32375D",
"s  c #323C5C",
"d  c #353E62",
"f  c #393F61",
"g  c #35415D",
"h  c #354264",
"j  c #364365",
"k  c #364366",
"l  c #374164",
"z  c #364564",
"x  c #374467",
"c  c #374667",
"v  c #364263",
"b  c #384363",
"n  c #384265",
"m  c #384565",
"M  c #384567",
"N  c #384464",
"B  c #384861",
"V  c #394867",
"C  c #354368",
"Z  c #364268",
"A  c #354569",
"S  c #374568",
"D  c #374769",
"F  c #37476B",
"G  c #374568",
"H  c #384568",
"J  c #384768",
"K  c #384669",
"L  c #394669",
"P  c #39456B",
"I  c #39476A",
"U  c #38466B",
"Y  c #3A476A",
"T  c #394669",
"R  c #394869",
"E  c #38486A",
"W  c #3A486B",
"Q  c #3A486D",
"!  c #3E4D69",
"~  c #414862",
"^  c #414C60",
"/  c #44546E",
"(  c #495B81",
")  c #4A5E83",
"_  c #4B5D85",
"`  c #4C5E86",
"'  c #4D5E82",
"]  c #4C5F89",
"[  c #4E6086",
"{  c #4E6289",
"}  c #556A96",
"|  c #566D98",
" . c #586F98",
".. c #586F99",
"X. c #5A6F9E",
"o. c #586F99",
"O. c #57739B",
"+. c #577099",
"@. c #59709C",
"#. c #59719D",
"$. c #5B739F",
"%. c #5C739D",
"&. c #5B749D",
"*. c #5A729C",
"=. c #5873A0",
"-. c #5D75A1",
";. c #5E77A0",
":. c #5C74A2",
">. c #5C77A2",
",. c #5F77A3",
"<. c #5C77A4",
"1. c #5E76A4",
"2. c #5D77A3",
"3. c #5D79A1",
"4. c #5F78A1",
"5. c #5D78A3",
"6. c #5C79A3",
"7. c #5D78A5",
"8. c #5C79A5",
"9. c #5E79A4",
"0. c #5C78A7",
"q. c #5E79A6",
"w. c #5D78A3",
"e. c #5E79A8",
"r. c #5F7AAA",
"t. c #6077A3",
"y. c #6179A9",
"u. c #607BAA",
/* pixels */
"5.5.5.5.5.5.5.5.5.5.5.5.5.5.5.5.,.5.5.5.9.5.5.9.5.5.5.5.5.5.5.5.@ @ @ @ @ @ @ @ @ @ @ @ @ @ @ @ @ @ @ @ @ @ @ @ @ @ @ @ @ @ @ @ ",
"5.5.5.5.5.5.5.5.5.5.5.5.5.5.5.5.,.5.,.5.5.9.5.5.9.5.9.5.5.5.5.5.@ @ @ @ @ @ @ @ @ @ @ @ @ @ @ @ @ @ @ @ @ @ @ @ @ @ @ @ @ @ @ @ ",
"5.5.5.5.5.5.5.5.5.5.5.5.5.5.5.5.5.5.5.5.,.5.5.5.5.9.5.5.< # %.5.@ @ @ @ @ @ @ @ @ @ @ @ @ @ @ @ @ @ @ @ @ @ @ @ @ @ @ @ @ @ @ @ ",
"5.5.5.5.5.5.5.5.5.5.5.5.5.5.5.5.5.5.5.5.5.,.5.5.5.9.,.< 3 6 $ &.@ @ @ @ @ @ @ @ @ @ @ @ @ @ @ @ @ @ @ @ @ @ @ @ @ @ @ @ @ @ @ @ ",
"5.5.5.5.5.5.5.5.5.5.5.5.5.5.5.5.5.5.9.5.5.5.5.5.5.5.4 3 h ,.9 $ @ @ @ @ @ @ @ @ @ @ @ @ @ @ @ @ @ @ @ @ @ @ @ @ @ @ @ @ @ @ @ @ ",
"5.5.5.5.5.5.5.5.5.5.5.5.5.5.5.5.5.5.5.9.5.5.,.,.,.1 6 h J Q ,.0 X @ @ @ @ @ @ @ @ @ @ @ @ @ @ @ @ @ @ @ @ @ @ @ @ @ @ @ @ @ @ @ ",
"5.5.5.5.5.5.5.5.5.5.5.5.5.5.5.5.5.9.5.5.5.8 @ @ @ @ f J J W W <.$ + X X . @ @ @ @ @ @ @ @ @ @ @ @ @ @ @ @ @ @ @ @ @ @ @ @ @ @ @ ",
"5.5.5.5.5.5.5.5.5.5.5.5.5.5.5.5.5.5.5.5.5.3 s #.q $ @ h J J J % @ 6 t.5.@ @ @ @ @ @ @ @ @ @ @ @ @ @ @ @ @ @ @ @ @ @ @ @ @ @ @ @ ",
"5.5.5.5.5.5.5.5.5.5.5.5.5.5.5.5.5.5.5.5.5.4 s J %.q 6 $ n W $ 6 6 M W u.@ @ @ @ @ @ @ @ @ @ @ @ @ @ @ @ @ @ @ @ @ @ @ @ @ @ @ @ ",
"5.5.5.5.5.5.5.5.5.5.5.5.5.5.5.5.5.9.5.5.9.4 s J J J J J S J J J S J J r.@ @ @ @ @ @ @ @ @ @ @ @ @ @ @ @ @ @ @ @ @ @ @ @ @ @ @ @ ",
"5.5.5.5.5.5.5.5.5.5.5.5.5.5.5.5.,.5.5.5.,.6 s J M S J J J J Q J J x S 9.@ @ @ @ @ @ @ @ @ @ @ @ @ @ @ @ @ @ @ @ @ @ @ @ @ @ @ @ ",
"5.5.5.5.5.5.5.5.5.5.5.5.5.5.5.5.5.9.5.,.<.4 s x & @ 6 b J J 5.7 $ $ n ,.@ @ @ @ @ @ @ @ @ @ @ @ @ @ @ @ @ @ @ @ @ @ @ @ @ @ @ @ ",
"5.5.5.5.5.5.5.5.5.5.5.5.5.5.5.5.5.5.5.<.r 6 % @ @ @ @ v J W 9.& # 6 $ # 6 ; @ @ @ @ @ @ @ @ @ @ @ @ @ @ @ @ @ @ @ @ @ @ @ @ @ @ ",
"5.5.5.5.5.5.5.5.5.5.5.5.5.5.5.5.5.5.5.r 6 % @ @ @ 3 % d J V ,.& 6 6 6 6 6 6 ; @ @ @ @ @ @ @ @ @ @ @ @ @ @ @ @ @ @ @ @ @ @ @ @ @ ",
"5.5.5.5.5.5.5.5.5.5.5.5.5.5.5.5.9.5.5.r % @ @ @ @ 3 6 6 v M 7 6 6 $ 6 6 6 6 , @ @ @ @ @ @ @ @ @ @ @ @ @ @ @ @ @ @ @ @ @ @ @ @ @ ",
"5.5.5.5.5.5.5.5.5.5.5.5.5.5.5.5.,.5.5.r % # @ @ @ @ 3 6 6 6 3 6 # $ 6 6 6 6 , @ @ @ @ @ @ @ @ @ @ @ @ @ @ @ @ @ @ @ @ @ @ @ @ @ ",
"5.5.5.5.5.5.5.5.5.5.5.5.5.5.5.5.5.5.,.S q ; $ @ @ @ @ @ @ $ $ $ $ 6 6 6 8 0 y @ @ @ @ @ @ @ @ @ @ @ @ @ @ @ @ @ @ @ @ @ @ @ @ @ ",
"5.5.5.5.5.5.5.5.5.5.5.5.5.5.5.5.5.5.5.g t v 0 & $ @ @ @ @ 3 6 6 6 6 7 q h #.. @ @ @ @ @ @ @ @ @ @ @ @ @ @ @ @ @ @ @ @ @ @ @ @ @ ",
"5.5.5.5.5.5.5.5.5.5.5.5.5.5.5.5.5.5.5.5.4 @ s h 0 ; % & % 6 7 q q q n +.% X @ @ @ @ @ @ @ @ @ @ @ @ @ @ @ @ @ @ @ @ @ @ @ @ @ @ ",
"5.5.5.5.5.5.5.5.5.5.5.5.5.5.5.5.5.5.5.9.t # @ @ s v v h Z h Z X.=.#.8 3 @   @ @ @ @ @ @ @ @ @ @ @ @ @ @ @ @ @ @ @ @ @ @ @ @ @ @ ",
"5.5.5.5.5.5.5.5.5.5.5.5.5.5.5.5.5.5.5.5.5.8 @ # @ @ @ , 6 7 6 6 6 6 6 3 X @ @ @ @ @ @ @ @ @ @ @ @ @ @ @ @ @ @ @ @ @ @ @ @ @ @ @ ",
"5.5.5.5.5.5.5.5.5.5.5.5.5.5.5.5.5.5.5.5.5.4 # @ @ @ @ @ 6 6 6 6 6 6 6 # X @ @ @ @ @ @ @ @ @ @ @ @ @ @ @ @ @ @ @ @ @ @ @ @ @ @ @ ",
"5.5.5.5.5.5.5.5.5.5.5.5.5.5.5.5.5.9.5.5.5.t $ @ @ @ @ @ 3 6 6 6 6 7 3 @   @ @ @ @ @ @ @ @ @ @ @ @ @ @ @ @ @ @ @ @ @ @ @ @ @ @ @ ",
"5.5.5.5.5.5.5.5.5.5.5.5.5.5.5.5.5.5.5.5.9.5.5 @ @ @ @ @ 3 6 6 6 6 6 @ + @ @ @ @ @ @ @ @ @ @ @ @ @ @ @ @ @ @ @ @ @ @ @ @ @ @ @ @ ",
"5.5.5.5.5.5.5.5.5.5.5.5.5.5.5.5.5.,.5.,.<. .1 @ @ @ @ @ @ 3 6 6 3 , @ @ * @ @ @ @ @ @ @ @ @ @ @ @ @ @ @ @ @ @ @ @ @ @ @ @ @ @ @ ",
"5.5.5.5.5.5.5.5.5.5.5.5.5.5.5.5.5.5.5.5. .e 6 $ @ @ @ @ @ 3 6 6 3 $ @ 6 , @ @ @ @ @ @ @ @ @ @ @ @ @ @ @ @ @ @ @ @ @ @ @ @ @ @ @ ",
"5.5.5.5.5.5.5.5.5.5.5.5.5.5.5.5.>.5.5.5.h q 7 ; % % $ @ @ @ > , % % % 6 0 r @ @ @ @ @ @ @ @ @ @ @ @ @ @ @ @ @ @ @ @ @ @ @ @ @ @ ",
"5.5.5.5.5.5.5.5.5.5.5.5.5.5.5.5.5.9.9.5.B r e q 7 6 % % % % % % 6 s a q t X @ @ @ @ @ @ @ @ @ @ @ @ @ @ @ @ @ @ @ @ @ @ @ @ @ @ ",
"5.5.5.5.5.5.5.5.5.5.5.5.5.5.5.5.5.5.5.5.5.x r s 3 q q q q q s s s ` [ y . @ @ @ @ @ @ @ @ @ @ @ @ @ @ @ @ @ @ @ @ @ @ @ @ @ @ @ ",
"5.5.5.5.5.5.5.5.5.5.5.5.5.5.5.5.9.5.5.5.5.5./ ~ % r y t t t ( ) ) $ 2 * @ @ @ @ @ @ @ @ @ @ @ @ @ @ @ @ @ @ @ @ @ @ @ @ @ @ @ @ ",
"5.5.5.5.5.5.5.5.5.5.5.5.5.5.5.5.5.5.5.5.5.5.5.5.B * # @ @ @ @ ; @ . @ @ @ @ @ @ @ @ @ @ @ @ @ @ @ @ @ @ @ @ @ @ @ @ @ @ @ @ @ @ ",
"5.5.5.5.5.5.5.5.5.5.5.5.5.5.5.5.5.5.5.5.5.5.5.5.9.r % @ @ # & 6 @ @ @ @ @ @ @ @ @ @ @ @ @ @ @ @ @ @ @ @ @ @ @ @ @ @ @ @ @ @ @ @ ",
"@ @ @ @ @ @ @ @ @ @ @ @ @ @ @ @ @ @ @ @ @ @ @ @ @ ; $ $ @ & 6 7 # #.5.5.9.5.5.5.5.5.5.5.5.5.5.5.5.5.5.5.5.5.5.5.5.5.5.5.5.5.5.5.",
"@ @ @ @ @ @ @ @ @ @ @ @ @ @ @ @ @ @ @ @ @ @ @ @ @ $ $ @ @ 6 6 6 $ ,.5.5.5.5.5.5.5.5.5.5.5.5.5.5.5.5.5.5.5.5.5.5.5.5.5.5.5.5.5.5.",
"@ @ @ @ @ @ @ @ @ @ @ @ @ @ @ @ @ @ @ @ @ @ @ @ % . @ @ @ 6 6 6 ; ' 5.5.5.9.5.5.5.5.5.5.5.5.5.5.5.5.5.5.5.5.5.5.5.5.5.5.5.5.5.5.",
"@ @ @ @ @ @ @ @ @ @ @ @ @ @ @ @ @ @ @ @ @ @ @ @ % % @ @ @ 6 6 t r $ ,.5.5.5.5.5.5.5.5.5.5.5.5.5.5.5.5.5.5.5.5.5.5.5.5.5.5.5.5.5.",
"@ @ @ @ @ @ @ @ @ @ @ @ @ @ @ @ @ @ @ @ @ @ @ @ @ # @ @ # 3 6 S x $ ,.5.5.5.9.5.5.5.5.5.5.5.5.5.5.5.5.5.5.5.5.5.5.5.5.5.5.5.5.5.",
"@ @ @ @ @ @ @ @ @ @ @ @ @ @ @ @ @ @ @ @ @ @ @ # . @ @ # $ 6 6 x ) b ' 5.5.5.5.5.5.5.5.5.5.5.5.5.5.5.5.5.5.5.5.5.5.5.5.5.5.5.5.5.",
"@ @ @ @ @ @ @ @ @ @ @ @ @ @ @ @ @ @ @ @ @ @ @ + $ @ @ @ @ 6 6 M r.u.% >.5.5.5.5.5.5.5.5.5.5.5.5.5.5.5.5.5.5.5.5.5.5.5.5.5.5.5.5.",
"@ @ @ @ @ @ @ @ @ @ @ @ @ @ @ @ @ @ @ @ @ @ @ X $ @ @ @ @ 6 6 r ] [ # &.5.,.5.5.5.5.5.5.5.5.5.5.5.5.5.5.5.5.5.5.5.5.5.5.5.5.5.5.",
"@ @ @ @ @ @ @ @ @ @ @ @ @ @ @ @ @ @ @ @ @ @ # X @ # @ @ @ 6 6 6 J J ; ! 5.5.5.5.5.5.5.5.5.5.5.5.5.5.5.5.5.5.5.5.5.5.5.5.5.5.5.5.",
"@ @ @ @ @ @ @ @ @ @ @ @ @ @ @ @ @ @ @ @ @ @ O $ @ @ @ @ ; 6 6 6 J J 6 @ ,.>.5.5.5.5.5.5.5.5.5.5.5.5.5.5.5.5.5.5.5.5.5.5.5.5.5.5.",
"@ @ @ @ @ @ @ @ @ @ @ @ @ @ @ @ @ @ @ @ @ + . @ @ @ @ @ 3 6 6 6 r r 6 ; ! <.5.5.5.5.5.5.5.5.5.5.5.5.5.5.5.5.5.5.5.5.5.5.5.5.5.5.",
"@ @ @ @ @ @ @ @ @ @ @ @ @ @ @ @ @ @ @ @ @ ; % @ @ @ @ @ 6 6 6 6 6 6 7 6 # >.5.5.5.5.5.5.5.5.5.5.5.5.5.5.5.5.5.5.5.5.5.5.5.5.5.5.",
"@ @ @ @ @ @ @ @ @ @ @ @ @ @ @ @ @ @ @ @ @ @ # @ @ % @ @ 6 7 6 6 6 6 6 6 # <.9.5.5.5.5.5.5.5.5.5.5.5.5.5.5.5.5.5.5.5.5.5.5.5.5.5.",
"@ @ @ @ @ @ @ @ @ @ @ @ @ @ @ @ @ @ @ @ + X @ @ @ # # @ 3 7 6 6 6 6 6 6 , s ,.5.5.5.5.5.5.5.5.5.5.5.5.5.5.5.5.5.5.5.5.5.5.5.5.5.",
"@ @ @ @ @ @ @ @ @ @ @ @ @ @ @ @ @ @ @ @ $ % @ @ @ # @ > 6 6 6 6 7 6 6 6 6 # ,.9.5.5.5.5.5.5.5.5.5.5.5.5.5.5.5.5.5.5.5.5.5.5.5.5.",
"@ @ @ @ @ @ @ @ @ @ @ @ @ @ @ @ @ @ O > $ # @ @ @ @ @ 6 6 7 6 6 6 6 6 6 6 @ r g 5.5.5.5.5.5.5.5.5.5.5.5.5.5.5.5.5.5.5.5.5.5.5.5.",
"@ @ @ @ @ @ @ @ @ @ @ @ @ @ @ @ @ @ ; 6 % @ @ @ @ @ @ 6 6 6 6 6 6 6 6 6 = $ 3 6 5.5.5.5.5.5.5.5.5.5.5.5.5.5.5.5.5.5.5.5.5.5.5.5.",
"@ @ @ @ @ @ @ @ @ @ @ @ @ @ @ @ @ o + , 3 , $ @ @ @ @ % 6 6 6 6 6 6 6 & $ , s % p 5.5.,.5.5.5.,.5.5.5.5.5.5.5.5.5.5.5.5.5.5.5.5.",
"@ @ @ @ @ @ @ @ @ @ @ @ @ @ @ @ # % $ % % t 6 3 3 % @ @ % = % % % % d [ [ d : @ , ^ 5.5.5.5.5.5.5.5.5.5.5.5.5.5.5.5.5.5.5.5.5.5.",
"@ @ @ @ @ @ @ @ @ @ @ @ @ @ @ @ % 6 % @ @ ; & % s 6 3 , 3 3 3 s y { +.r.7 ; @ @ 6 3 w 5.5.5.,.5.5.5.5.5.5.5.5.5.5.5.5.5.5.5.5.5.",
"@ @ @ @ @ @ @ @ @ @ @ @ @ @ @ . r q 3 , $ @ @ @ ; % % $ % % % ; ; 6 4 4 @ @ 3 , 6 s 3 5.5.5.5.5.5.5.5.5.5.5.5.5.5.5.5.5.5.5.5.5.",
"@ @ @ @ @ @ @ @ @ @ @ @ @ @ @ X & i v 0 3 3 , $ @ @ @ @ @ @ @ $ @ @ @ 3 3 1 6 v } 0 6 5.5.5.5.5.5.5.5.5.5.5.5.5.5.5.5.5.5.5.5.5.",
"@ @ @ @ @ @ @ @ @ @ @ @ @ @ @ o @ & ; t v v 7 3 3 3 3 3 3 3 3 3 3 3 3 6 v | | #.r 6 6 5.,.,.5.,.5.5.5.5.5.5.5.5.5.5.5.5.5.5.5.5.",
"@ @ @ @ @ @ @ @ @ @ @ @ @ @ @ X @ @ @ - ; - y h v h h h h h h } | |  .| #.r.r e 6 6 7 5.5.,.5.5.5.5.5.5.5.5.5.5.5.5.5.5.5.5.5.5.",
"@ @ @ @ @ @ @ @ @ @ @ @ @ @ @ . @ # @ @ @ @ % ; & & & & & & 7 q q q q q q r 6 6 6 6 6 5.5.5.5.5.5.5.5.5.5.5.5.5.5.5.5.5.5.5.5.5.",
"@ @ @ @ @ @ @ @ @ @ @ @ @ @ @ & % # @ @ @ @ @ @ @ @ @ @ @ @ 3 6 6 6 6 6 6 6 6 6 6 3 & 5.5.5.5.5.5.5.5.5.5.5.5.5.5.5.5.5.5.5.5.5.",
"@ @ @ @ @ @ @ @ @ @ @ @ @ @ @ @ $ % @ @ @ @ @ @ @ @ @ @ @ 3 6 6 6 6 6 7 6 7 6 6 6 $  .5.5.5.5.5.5.5.5.5.5.5.5.5.5.5.5.5.5.5.5.5.",
"@ @ @ @ @ @ @ @ @ @ @ @ @ @ @ @ @ $ $ @ # @ @ @ @ @ @ @ @ 6 6 6 6 6 6 6 6 6 6 6 $  .9.5.5.5.5.5.5.5.5.5.5.5.5.5.5.5.5.5.5.5.5.5.",
"@ @ @ @ @ @ @ @ @ @ @ @ @ @ @ @ @ @ @ ; % @ @ @ # @ @ @ # 6 6 6 6 6 6 6 6 6 $ *.#.5.5.5.5.5.5.5.5.5.5.5.5.5.5.5.5.5.5.5.5.5.5.5.",
"@ @ @ @ @ @ @ @ @ @ @ @ @ @ @ @ @ @ @ @ # . @ @ @ @ @ @ @ @ 6 6 6 6 6 6 $ %.%.5.5.5.5.5.5.,.5.5.5.5.5.5.5.5.5.5.5.5.5.5.5.5.5.5.",
"@ @ @ @ @ @ @ @ @ @ @ @ @ @ @ @ @ @ @ @ @ @ @ @ @ @ @ @ @ @ @ @ *.*.%.*.*.,.5.5.5.5.5.5.9.5.5.5.5.5.5.5.5.5.5.5.5.5.5.5.5.5.5.5.",
"@ @ @ @ @ @ @ @ @ @ @ @ @ @ @ @ @ @ @ @ @ @ @ @ @ @ @ @ @ @ @ @ 5.5.5.5.>.5.5.5.5.5.9.5.,.5.5.5.5.5.5.5.5.5.5.5.5.5.5.5.5.5.5.5."
};
